<?xml version="1.0" encoding="utf-8"?>
<!-- Generator: Adobe Illustrator 16.0.0, SVG Export Plug-In . SVG Version: 6.00 Build 0)  -->
<!DOCTYPE svg PUBLIC "-//W3C//DTD SVG 1.1//EN" "http://www.w3.org/Graphics/SVG/1.1/DTD/svg11.dtd">
<svg version="1.1" id="Calque_1" xmlns="http://www.w3.org/2000/svg" xmlns:xlink="http://www.w3.org/1999/xlink" x="0px" y="0px"
	 width="841.89px" height="595.281px" viewBox="0 0 841.89 595.281" enable-background="new 0 0 841.89 595.281"
	 xml:space="preserve">
<g>
	<g>
		<g>
			<g>
				<g>
					<path fill="#B7CD05" d="M427.454,341.43h-5.268v-22.778c0-3.284-1.231-6.089-3.626-8.482c-2.394-2.395-5.13-3.558-8.345-3.558
						s-6.088,1.163-8.482,3.558c-2.395,2.394-3.557,5.198-3.557,8.482v22.778h-5.268v-22.231c0-5.063,1.642-9.234,4.925-12.587
						c3.284-3.352,7.388-5.062,12.382-5.062c4.925,0,9.029,1.71,12.313,5.062c3.283,3.353,4.926,7.524,4.926,12.587V341.43z"/>
					<path fill="#B7CD05" d="M472.944,341.43h-5.062v-6.088c-4.241,4.856-9.44,7.183-15.597,6.978
						c-5.403-0.205-9.987-2.258-13.749-6.226c-3.763-3.967-5.678-8.687-5.678-14.159c0-5.678,2.052-10.604,6.088-14.639
						c4.036-4.104,8.893-6.02,14.57-5.814c5.473,0.205,10.124,2.257,13.955,6.293c3.83,3.968,5.678,8.688,5.472,14.092v0.273V341.43
						z M438.127,321.524c-0.068,4.104,1.23,7.73,4.035,10.809s6.226,4.651,10.192,4.856c4.31,0.205,7.936-1.3,10.945-4.446
						c3.078-3.215,4.515-6.978,4.446-11.287c-0.068-4.104-1.573-7.593-4.378-10.534s-6.225-4.378-10.192-4.378
						c-4.173,0-7.661,1.437-10.603,4.378S438.195,317.352,438.127,321.524z"/>
					<path fill="#B7CD05" d="M492.647,342.251c-9.509,0-14.229-4.036-14.229-12.108v-41.385h5.268v13.612h8.961v4.857h-8.961v22.026
						c0,5.814,3.01,8.688,8.961,8.688V342.251z"/>
					<path fill="#B7CD05" d="M531.571,341.43h-5.199v-22.71c0-3.284-1.231-6.089-3.626-8.482c-2.394-2.395-5.267-3.558-8.481-3.489
						c-3.284,0.068-6.088,1.163-8.346,3.353c-2.258,2.12-3.352,4.856-3.352,8.208v23.121h-5.404v-52.74h5.268v19.29
						c2.941-3.898,6.771-5.951,11.423-6.156c4.857-0.205,8.962,1.368,12.45,4.788c3.488,3.421,5.268,7.661,5.268,12.655V341.43z"/>
					<path fill="#B7CD05" d="M576.583,341.43h-5.062v-6.088c-4.241,4.856-9.44,7.183-15.597,6.978
						c-5.403-0.205-9.987-2.258-13.749-6.226c-3.763-3.967-5.678-8.687-5.678-14.159c0-5.678,2.052-10.604,6.088-14.639
						c4.036-4.104,8.893-6.02,14.57-5.814c5.473,0.205,10.124,2.257,13.955,6.293c3.83,3.968,5.678,8.688,5.472,14.092v0.273V341.43
						z M541.766,321.524c-0.068,4.104,1.23,7.73,4.035,10.809s6.226,4.651,10.192,4.856c4.31,0.205,7.936-1.3,10.945-4.446
						c3.078-3.215,4.515-6.978,4.446-11.287c-0.068-4.104-1.573-7.593-4.378-10.534s-6.225-4.378-10.192-4.378
						c-4.173,0-7.661,1.437-10.603,4.378S541.834,317.352,541.766,321.524z"/>
					<path fill="#B7CD05" d="M587.257,341.43h-5.199v-52.74h5.199V341.43z"/>
					<path fill="#B7CD05" d="M598.27,297.788h-5.131v-9.098h5.131V297.788z M598.27,341.43h-5.131v-38.991h5.131V341.43z"/>
					<path fill="#B7CD05" d="M643.417,328.638c-1.437,4.173-3.899,7.525-7.388,9.987c-3.488,2.463-7.319,3.694-11.561,3.763
						c-5.336,0.068-10.056-1.848-14.16-5.814c-4.104-4.036-6.225-8.756-6.293-14.297c-0.137-5.814,1.915-10.876,6.156-15.049
						c4.31-4.241,9.304-6.226,15.118-5.883c5.198,0.342,9.713,2.462,13.544,6.43c3.693,3.899,5.541,8.277,5.541,13.134v2.805
						h-35.023c0.41,3.899,2.052,7.183,4.993,9.714c2.941,2.53,6.361,3.83,10.329,3.762c6.156-0.068,10.534-2.941,13.202-8.551
						H643.417z M639.244,318.925c-0.752-3.626-2.463-6.567-5.13-8.824c-2.668-2.258-5.883-3.421-9.646-3.489
						s-7.046,1.095-9.851,3.353c-2.805,2.257-4.515,5.267-5.267,8.961H639.244z"/>
					<path fill="#B7CD05" d="M667.01,321.593V288.69h5.13v19.7c3.831-4.446,8.619-6.703,14.365-6.908
						c5.609-0.205,10.466,1.71,14.502,5.814c4.104,4.104,6.156,8.961,6.156,14.639c0,5.473-1.915,10.192-5.677,14.159
						c-3.763,3.968-8.414,6.021-13.818,6.226c-5.609,0.205-10.466-1.779-14.639-5.883c-4.173-4.104-6.156-8.961-6.02-14.57V321.593z
						 M697.792,332.333c2.805-3.078,4.173-6.636,4.104-10.809c-0.068-4.104-1.573-7.593-4.515-10.534
						c-2.873-2.941-6.362-4.446-10.535-4.446c-3.967,0-7.388,1.437-10.191,4.378c-2.805,2.941-4.31,6.431-4.378,10.534
						c-0.138,4.31,1.299,8.072,4.378,11.287c3.078,3.146,6.703,4.651,10.944,4.446C691.636,336.984,694.987,335.411,697.792,332.333
						z"/>
					<path fill="#B7CD05" d="M751.696,341.43h-5.062v-6.088c-4.241,4.856-9.44,7.183-15.597,6.978
						c-5.403-0.205-9.987-2.258-13.749-6.226c-3.763-3.967-5.678-8.687-5.678-14.159c0-5.678,2.052-10.604,6.088-14.639
						c4.036-4.104,8.893-6.02,14.57-5.814c5.473,0.205,10.124,2.257,13.955,6.293c3.83,3.968,5.678,8.688,5.472,14.092v0.273V341.43
						z M716.879,321.524c-0.068,4.104,1.23,7.73,4.035,10.809s6.226,4.651,10.192,4.856c4.31,0.205,7.936-1.3,10.945-4.446
						c3.078-3.215,4.515-6.978,4.446-11.287c-0.068-4.104-1.573-7.593-4.378-10.534s-6.225-4.378-10.192-4.378
						c-4.173,0-7.661,1.437-10.603,4.378S716.947,317.352,716.879,321.524z"/>
					<path fill="#B7CD05" d="M762.37,341.43h-5.199v-52.74h5.199V341.43z"/>
					<path fill="#B7CD05" d="M773.451,341.43h-5.199v-52.74h5.199V341.43z"/>
				</g>
			</g>
			<g>
				<g>
					<path fill="#3C3C3B" d="M398.214,370.408c-0.834-0.458-1.488-1.094-1.962-1.906c-0.475-0.813-0.713-1.724-0.713-2.731
						c-0.001-1.008,0.235-1.918,0.708-2.731c0.474-0.814,1.129-1.45,1.967-1.91c0.839-0.46,1.775-0.689,2.813-0.69
						c0.778-0.001,1.496,0.129,2.156,0.387c0.658,0.26,1.217,0.638,1.677,1.137l-0.703,0.703c-0.819-0.827-1.853-1.24-3.1-1.239
						c-0.828,0.001-1.581,0.19-2.259,0.571c-0.679,0.379-1.21,0.898-1.593,1.558c-0.385,0.658-0.575,1.396-0.574,2.215
						c0,0.818,0.192,1.557,0.577,2.215s0.916,1.177,1.596,1.556c0.679,0.378,1.432,0.567,2.26,0.566
						c1.258-0.001,2.29-0.421,3.098-1.26l0.704,0.703c-0.459,0.499-1.021,0.882-1.683,1.146c-0.664,0.266-1.385,0.397-2.163,0.398
						C399.983,371.095,399.048,370.867,398.214,370.408z"/>
					<path fill="#3C3C3B" d="M409.513,370.391c-0.844-0.463-1.503-1.099-1.977-1.906c-0.475-0.808-0.713-1.716-0.713-2.724
						c-0.001-1.008,0.235-1.916,0.708-2.725c0.474-0.809,1.131-1.445,1.975-1.91c0.843-0.465,1.782-0.696,2.82-0.697
						s1.974,0.228,2.808,0.687c0.833,0.458,1.49,1.093,1.969,1.906c0.479,0.813,0.721,1.724,0.722,2.731
						c0,1.008-0.239,1.918-0.717,2.731c-0.479,0.813-1.134,1.45-1.967,1.91c-0.833,0.459-1.768,0.689-2.806,0.69
						S410.356,370.854,409.513,370.391z M414.579,369.535c0.667-0.374,1.191-0.895,1.569-1.558c0.379-0.664,0.568-1.405,0.568-2.224
						c-0.001-0.818-0.192-1.558-0.571-2.222c-0.38-0.663-0.904-1.182-1.572-1.556c-0.67-0.373-1.418-0.561-2.246-0.56
						s-1.579,0.188-2.252,0.563c-0.673,0.374-1.202,0.895-1.585,1.558c-0.385,0.664-0.575,1.404-0.574,2.223
						c0,0.818,0.192,1.559,0.577,2.223c0.385,0.663,0.914,1.182,1.588,1.556c0.674,0.373,1.425,0.56,2.253,0.559
						S413.91,369.91,414.579,369.535z"/>
					<path fill="#3C3C3B" d="M429.808,360.505l0.009,10.477l-0.913,0.001l-6.742-8.496l0.007,8.501l-1.107,0.001l-0.009-10.477
						l0.913-0.001l6.757,8.496l-0.007-8.501L429.808,360.505z"/>
					<path fill="#3C3C3B" d="M434.628,370.694c-0.715-0.248-1.266-0.578-1.655-0.987l0.434-0.853
						c0.379,0.379,0.884,0.685,1.513,0.919c0.628,0.233,1.276,0.351,1.945,0.35c0.938,0,1.642-0.173,2.11-0.517
						c0.468-0.346,0.702-0.792,0.702-1.341c-0.001-0.419-0.128-0.753-0.382-1.003c-0.255-0.248-0.567-0.44-0.937-0.575
						s-0.883-0.281-1.542-0.44c-0.788-0.198-1.417-0.391-1.886-0.574c-0.47-0.185-0.871-0.466-1.206-0.845
						c-0.334-0.379-0.502-0.893-0.502-1.542c-0.001-0.528,0.139-1.01,0.417-1.444c0.279-0.434,0.708-0.781,1.287-1.041
						c0.578-0.26,1.296-0.39,2.154-0.391c0.599,0,1.185,0.081,1.76,0.246c0.573,0.163,1.07,0.391,1.489,0.68l-0.373,0.883
						c-0.439-0.289-0.909-0.505-1.408-0.65c-0.499-0.145-0.988-0.216-1.467-0.216c-0.918,0.001-1.609,0.179-2.072,0.533
						c-0.464,0.354-0.695,0.812-0.694,1.37c0,0.419,0.127,0.756,0.382,1.01c0.255,0.255,0.574,0.449,0.958,0.583
						c0.385,0.135,0.9,0.282,1.55,0.44c0.768,0.188,1.39,0.376,1.864,0.561c0.474,0.184,0.875,0.463,1.205,0.837
						c0.33,0.373,0.494,0.88,0.495,1.519c0,0.528-0.142,1.01-0.426,1.445c-0.284,0.434-0.721,0.778-1.309,1.033
						c-0.589,0.255-1.312,0.383-2.17,0.383C436.087,371.067,435.341,370.943,434.628,370.694z"/>
					<path fill="#3C3C3B" d="M451.337,370.007l0.001,0.958l-7.409,0.006l-0.009-10.477l7.185-0.006l0.001,0.958l-6.077,0.005
						l0.003,3.727l5.418-0.005l0.001,0.942l-5.418,0.005l0.003,3.892L451.337,370.007z"/>
					<path fill="#3C3C3B" d="M454.682,360.486l1.107-0.001l0.009,10.477l-1.107,0.001L454.682,360.486z"/>
					<path fill="#3C3C3B" d="M459.949,360.482l1.107-0.001l0.008,9.519l5.867-0.005l0.001,0.958l-6.975,0.006L459.949,360.482z"/>
					<path fill="#3C3C3B" d="M470.054,370.667c-0.715-0.249-1.266-0.578-1.655-0.987l0.434-0.853
						c0.379,0.378,0.884,0.685,1.513,0.919c0.628,0.233,1.276,0.351,1.945,0.35c0.938-0.001,1.642-0.173,2.11-0.518
						c0.468-0.345,0.702-0.791,0.702-1.34c-0.001-0.419-0.128-0.753-0.382-1.003c-0.255-0.249-0.567-0.44-0.937-0.575
						s-0.883-0.281-1.542-0.44c-0.788-0.198-1.417-0.391-1.886-0.574c-0.47-0.185-0.871-0.467-1.206-0.845
						c-0.334-0.379-0.502-0.893-0.502-1.542c-0.001-0.528,0.139-1.01,0.417-1.444c0.279-0.435,0.708-0.781,1.287-1.041
						c0.578-0.26,1.296-0.39,2.154-0.391c0.599-0.001,1.185,0.081,1.76,0.245c0.573,0.164,1.07,0.392,1.489,0.68l-0.373,0.884
						c-0.439-0.289-0.909-0.506-1.408-0.65s-0.988-0.217-1.467-0.216c-0.918,0.001-1.609,0.179-2.072,0.532
						c-0.464,0.355-0.695,0.813-0.694,1.371c0,0.419,0.127,0.756,0.382,1.01c0.255,0.255,0.574,0.448,0.958,0.583
						c0.385,0.135,0.9,0.281,1.55,0.44c0.768,0.188,1.39,0.376,1.864,0.56c0.474,0.185,0.875,0.464,1.205,0.837
						c0.33,0.374,0.494,0.881,0.495,1.52c0,0.528-0.142,1.01-0.426,1.444c-0.284,0.434-0.721,0.779-1.309,1.033
						c-0.589,0.256-1.312,0.383-2.17,0.384C471.513,371.04,470.767,370.915,470.054,370.667z"/>
					<path fill="#3C3C3B" d="M483.886,366.495c-0.22-0.22-0.329-0.494-0.329-0.823c-0.001-0.319,0.108-0.586,0.328-0.801
						c0.22-0.214,0.484-0.322,0.794-0.322c0.309,0,0.573,0.107,0.793,0.32c0.219,0.215,0.329,0.481,0.33,0.801
						c0,0.319-0.11,0.592-0.329,0.815c-0.22,0.226-0.484,0.338-0.793,0.338C484.37,366.823,484.105,366.714,483.886,366.495z"/>
					<path fill="#3C3C3B" d="M495.256,361.413l0.003,4.115l5.418-0.005l0.001,0.958l-5.418,0.005l0.004,4.445l-1.107,0.001
						l-0.009-10.477l7.185-0.006l0.001,0.958L495.256,361.413z"/>
					<path fill="#3C3C3B" d="M506.002,370.316c-0.844-0.463-1.503-1.099-1.977-1.906c-0.475-0.808-0.713-1.716-0.713-2.724
						c-0.001-1.008,0.235-1.916,0.708-2.725c0.474-0.809,1.131-1.445,1.975-1.91c0.843-0.465,1.782-0.696,2.82-0.697
						s1.974,0.228,2.808,0.687c0.833,0.458,1.49,1.093,1.969,1.906c0.479,0.813,0.721,1.723,0.722,2.73
						c0,1.008-0.239,1.919-0.717,2.732c-0.479,0.813-1.134,1.45-1.967,1.91c-0.833,0.459-1.768,0.689-2.806,0.69
						S506.846,370.779,506.002,370.316z M511.068,369.459c0.667-0.375,1.191-0.895,1.569-1.558c0.379-0.665,0.568-1.405,0.568-2.224
						c-0.001-0.818-0.192-1.559-0.571-2.222c-0.38-0.663-0.904-1.183-1.572-1.556c-0.67-0.373-1.418-0.561-2.246-0.56
						c-0.828,0-1.579,0.188-2.252,0.563c-0.673,0.374-1.202,0.895-1.585,1.558c-0.385,0.664-0.575,1.404-0.574,2.223
						c0,0.818,0.192,1.559,0.577,2.223c0.385,0.663,0.914,1.182,1.588,1.556c0.674,0.373,1.425,0.559,2.253,0.559
						C509.651,370.021,510.399,369.834,511.068,369.459z"/>
					<path fill="#3C3C3B" d="M524.704,370.908l-2.397-3.365c-0.27,0.029-0.549,0.045-0.838,0.046l-2.814,0.002l0.003,3.322
						l-1.107,0.001l-0.009-10.477l3.922-0.003c1.337-0.001,2.386,0.317,3.144,0.955c0.76,0.639,1.139,1.516,1.14,2.633
						c0.001,0.818-0.206,1.51-0.619,2.074c-0.414,0.563-1.005,0.971-1.772,1.221l2.563,3.59L524.704,370.908z M523.817,365.955
						c0.548-0.46,0.822-1.104,0.821-1.932c0-0.848-0.275-1.499-0.824-1.952c-0.55-0.454-1.343-0.68-2.381-0.679l-2.784,0.002
						l0.004,5.253l2.784-0.002C522.476,366.644,523.269,366.414,523.817,365.955z"/>
					<path fill="#3C3C3B" d="M539.991,360.419L540,370.896l-1.063,0.001l-0.007-8.382l-4.11,7.053h-0.523l-4.122-7.001l0.007,8.337
						l-1.063,0.001l-0.009-10.477l0.913-0.001l4.557,7.764l4.498-7.771L539.991,360.419z"/>
					<path fill="#3C3C3B" d="M550.729,368.088l-5.837,0.005l-1.255,2.8l-1.152,0.001l4.78-10.48l1.093-0.001l4.798,10.473
						l-1.167,0.001L550.729,368.088z M550.325,367.191l-2.52-5.625l-2.51,5.629L550.325,367.191z"/>
					<path fill="#3C3C3B" d="M557.146,361.364l-3.683,0.003l-0.001-0.958l8.472-0.007l0.001,0.958l-3.682,0.003l0.008,9.519
						l-1.107,0.001L557.146,361.364z"/>
					<path fill="#3C3C3B" d="M564.447,360.4h1.107l0.009,10.477h-1.107L564.447,360.4z"/>
					<path fill="#3C3C3B" d="M571.482,370.265c-0.844-0.464-1.503-1.099-1.977-1.907c-0.475-0.807-0.713-1.715-0.713-2.723
						c-0.001-1.008,0.235-1.916,0.708-2.726c0.474-0.808,1.131-1.445,1.975-1.909c0.843-0.465,1.782-0.697,2.82-0.697
						c1.038-0.001,1.974,0.228,2.808,0.686c0.833,0.459,1.49,1.094,1.969,1.907c0.479,0.813,0.721,1.723,0.722,2.73
						c0,1.008-0.239,1.918-0.717,2.732c-0.479,0.813-1.134,1.45-1.967,1.909c-0.833,0.46-1.768,0.69-2.806,0.691
						C573.267,370.959,572.326,370.728,571.482,370.265z M576.549,369.409c0.667-0.375,1.191-0.895,1.569-1.559
						c0.379-0.664,0.568-1.404,0.568-2.223c-0.001-0.818-0.192-1.559-0.571-2.223c-0.38-0.662-0.904-1.182-1.572-1.555
						c-0.67-0.374-1.418-0.561-2.246-0.56c-0.828,0-1.579,0.188-2.252,0.563c-0.673,0.375-1.202,0.895-1.585,1.559
						c-0.385,0.664-0.575,1.404-0.574,2.223c0,0.818,0.192,1.559,0.577,2.223c0.385,0.662,0.914,1.182,1.588,1.555
						c0.674,0.374,1.425,0.56,2.253,0.56C575.132,369.97,575.88,369.783,576.549,369.409z"/>
					<path fill="#3C3C3B" d="M591.777,360.379l0.009,10.477h-0.913l-6.742-8.495l0.007,8.501l-1.107,0.001l-0.009-10.477
						l0.913-0.001l6.757,8.495l-0.007-8.501H591.777z"/>
					<path fill="#3C3C3B" d="M600.478,366.404c-0.22-0.22-0.329-0.494-0.329-0.823c-0.001-0.319,0.108-0.586,0.328-0.801
						s0.484-0.322,0.794-0.322c0.309,0,0.573,0.107,0.793,0.32c0.219,0.215,0.329,0.481,0.33,0.801c0,0.319-0.11,0.592-0.329,0.815
						c-0.22,0.226-0.484,0.338-0.793,0.338C600.962,366.732,600.697,366.623,600.478,366.404z"/>
					<path fill="#3C3C3B" d="M617.316,368.037l-5.837,0.005l-1.255,2.8l-1.152,0.001l4.78-10.48l1.093-0.001l4.798,10.473
						l-1.167,0.001L617.316,368.037z M616.912,367.138l-2.52-5.625l-2.51,5.63L616.912,367.138z"/>
					<path fill="#3C3C3B" d="M623.82,370.232c-0.834-0.458-1.488-1.094-1.962-1.906c-0.475-0.813-0.713-1.724-0.713-2.731
						c-0.001-1.008,0.235-1.918,0.708-2.731c0.474-0.814,1.129-1.45,1.967-1.91c0.839-0.46,1.775-0.689,2.813-0.69
						c0.778-0.001,1.496,0.129,2.156,0.387c0.658,0.259,1.217,0.638,1.677,1.137l-0.703,0.703c-0.819-0.827-1.853-1.24-3.1-1.239
						c-0.828,0-1.581,0.19-2.259,0.571c-0.679,0.379-1.21,0.897-1.593,1.558c-0.385,0.658-0.575,1.396-0.574,2.215
						c0,0.818,0.192,1.557,0.577,2.215c0.385,0.657,0.916,1.177,1.596,1.556c0.679,0.378,1.432,0.566,2.26,0.566
						c1.258-0.001,2.29-0.421,3.098-1.26l0.704,0.703c-0.459,0.499-1.021,0.881-1.683,1.146c-0.664,0.266-1.385,0.397-2.163,0.398
						C625.59,370.919,624.654,370.69,623.82,370.232z"/>
					<path fill="#3C3C3B" d="M635.106,370.223c-0.834-0.458-1.488-1.094-1.962-1.906c-0.475-0.813-0.713-1.724-0.713-2.731
						c-0.001-1.008,0.235-1.918,0.708-2.731c0.474-0.814,1.129-1.45,1.967-1.91c0.839-0.46,1.775-0.689,2.813-0.69
						c0.778-0.001,1.496,0.129,2.156,0.387c0.658,0.259,1.217,0.638,1.677,1.137l-0.703,0.703c-0.819-0.827-1.853-1.24-3.1-1.239
						c-0.828,0-1.581,0.19-2.259,0.57c-0.679,0.38-1.21,0.898-1.593,1.559c-0.385,0.658-0.575,1.396-0.574,2.215
						c0,0.818,0.192,1.557,0.577,2.215c0.385,0.657,0.916,1.177,1.596,1.555c0.679,0.379,1.432,0.567,2.26,0.567
						c1.258-0.001,2.29-0.421,3.098-1.26l0.704,0.703c-0.459,0.499-1.021,0.881-1.683,1.146c-0.664,0.266-1.385,0.397-2.163,0.398
						C636.876,370.911,635.94,370.681,635.106,370.223z"/>
					<path fill="#3C3C3B" d="M646.405,370.207c-0.844-0.463-1.503-1.099-1.977-1.906c-0.475-0.808-0.713-1.716-0.713-2.724
						c-0.001-1.008,0.235-1.916,0.708-2.725c0.474-0.809,1.131-1.445,1.975-1.91c0.843-0.465,1.782-0.696,2.82-0.697
						s1.974,0.228,2.808,0.686c0.833,0.459,1.49,1.094,1.969,1.907c0.479,0.813,0.721,1.723,0.722,2.73
						c0,1.008-0.239,1.918-0.717,2.732c-0.479,0.813-1.134,1.45-1.967,1.909c-0.833,0.46-1.768,0.69-2.806,0.691
						S647.249,370.669,646.405,370.207z M651.472,369.35c0.667-0.375,1.191-0.895,1.569-1.558c0.379-0.665,0.568-1.405,0.568-2.224
						c-0.001-0.818-0.192-1.559-0.571-2.222c-0.38-0.663-0.904-1.183-1.572-1.556c-0.67-0.374-1.418-0.561-2.246-0.56
						c-0.828,0-1.579,0.188-2.252,0.563c-0.673,0.375-1.202,0.895-1.585,1.559c-0.385,0.664-0.575,1.404-0.574,2.223
						c0,0.818,0.192,1.559,0.577,2.223c0.385,0.662,0.914,1.182,1.588,1.555c0.674,0.374,1.425,0.56,2.253,0.56
						C650.055,369.912,650.803,369.724,651.472,369.35z"/>
					<path fill="#3C3C3B" d="M668.825,360.319l0.009,10.477l-1.063,0.001l-0.007-8.382l-4.11,7.053l-0.523,0.001l-4.122-7.002
						l0.007,8.337l-1.063,0.001l-0.009-10.477l0.913-0.001l4.557,7.764l4.498-7.771L668.825,360.319z"/>
					<path fill="#3C3C3B" d="M680.052,361.268c0.76,0.638,1.139,1.516,1.14,2.633s-0.377,1.993-1.136,2.628
						c-0.757,0.635-1.805,0.951-3.142,0.953l-2.814,0.002l0.003,3.308l-1.107,0.001l-0.009-10.477l3.922-0.003
						C678.245,360.311,679.294,360.63,680.052,361.268z M679.263,365.826c0.548-0.454,0.822-1.096,0.821-1.924
						c0-0.848-0.275-1.499-0.824-1.952c-0.55-0.454-1.343-0.68-2.381-0.679l-2.784,0.002l0.004,5.238l2.784-0.002
						C677.921,366.508,678.714,366.28,679.263,365.826z"/>
					<path fill="#3C3C3B" d="M690.384,367.98l-5.837,0.004l-1.255,2.8l-1.152,0.001l4.78-10.479l1.093-0.001l4.798,10.473
						l-1.167,0.001L690.384,367.98z M689.979,367.082l-2.52-5.625l-2.51,5.629L689.979,367.082z"/>
					<path fill="#3C3C3B" d="M702.521,365.531l1.063-0.001l0.003,3.996c-0.489,0.43-1.067,0.76-1.735,0.989
						c-0.668,0.23-1.372,0.346-2.11,0.346c-1.048,0.001-1.99-0.228-2.829-0.686c-0.839-0.459-1.498-1.094-1.977-1.907
						c-0.48-0.813-0.721-1.723-0.721-2.73c-0.001-1.008,0.237-1.918,0.716-2.732c0.479-0.813,1.136-1.45,1.975-1.909
						c0.838-0.46,1.785-0.69,2.843-0.691c0.798,0,1.531,0.126,2.201,0.381c0.668,0.253,1.231,0.63,1.691,1.128l-0.688,0.704
						c-0.829-0.818-1.882-1.227-3.158-1.226c-0.849,0.001-1.614,0.189-2.297,0.563c-0.684,0.375-1.22,0.895-1.608,1.558
						c-0.389,0.665-0.582,1.405-0.581,2.224c0,0.818,0.195,1.557,0.584,2.214c0.391,0.658,0.924,1.178,1.604,1.556
						c0.679,0.379,1.442,0.567,2.29,0.566c1.078-0.001,1.991-0.27,2.738-0.81L702.521,365.531z"/>
					<path fill="#3C3C3B" d="M716.211,360.282l0.009,10.477l-0.913,0.001l-6.742-8.496l0.007,8.501l-1.107,0.001l-0.009-10.477
						l0.913-0.001l6.757,8.496l-0.007-8.501L716.211,360.282z"/>
					<path fill="#3C3C3B" d="M727.788,369.792l0.001,0.958l-7.409,0.006l-0.009-10.477l7.185-0.006l0.001,0.958l-6.077,0.005
						l0.003,3.727l5.418-0.004l0.001,0.942l-5.418,0.004l0.003,3.892L727.788,369.792z"/>
					<path fill="#3C3C3B" d="M742.013,360.262l0.009,10.477h-1.063l-0.007-8.382l-4.11,7.054h-0.523l-4.122-7.002l0.007,8.337
						l-1.063,0.001l-0.009-10.477h0.913l4.557,7.764l4.498-7.771H742.013z"/>
					<path fill="#3C3C3B" d="M753.591,369.771l0.001,0.958l-7.409,0.006l-0.009-10.477l7.185-0.005l0.001,0.958l-6.077,0.004
						l0.003,3.727l5.418-0.004l0.001,0.942l-5.418,0.004l0.003,3.892L753.591,369.771z"/>
					<path fill="#3C3C3B" d="M765.69,360.244l0.009,10.477h-0.913l-6.742-8.495l0.007,8.501l-1.107,0.001l-0.009-10.477l0.913-0.001
						l6.757,8.496l-0.007-8.501L765.69,360.244z"/>
					<path fill="#3C3C3B" d="M771.888,361.197l-3.683,0.003l-0.001-0.958l8.472-0.007l0.001,0.958l-3.682,0.003l0.008,9.519
						l-1.107,0.001L771.888,361.197z"/>
				</g>
			</g>
		</g>
	</g>
	<linearGradient id="SVGID_2_" gradientUnits="userSpaceOnUse" x1="344.4053" y1="266.4731" x2="220.8848" y2="389.9936">
		<stop  offset="0" style="stop-color:#DEDC00"/>
		<stop  offset="0.7366" style="stop-color:#95C11F"/>
		<stop  offset="1" style="stop-color:#3AAA35"/>
	</linearGradient>
	<circle fill="url(#SVGID_2_)" cx="282.644" cy="328.233" r="87.343"/>
	<g>
		<defs>
			<circle id="SVGID_4_" cx="282.644" cy="328.233" r="87.343"/>
		</defs>
		<clipPath id="SVGID_3_">
			<use xlink:href="#SVGID_4_"  overflow="visible"/>
		</clipPath>
		<g clip-path="url(#SVGID_3_)">
			<path fill="none" d="M292.383,348.275c-0.449,1.133-0.228,5.215,0.36,6.119c0.912-0.25,2.255-2.526,2.379-3.139
				C295.1,350.771,293.638,348.93,292.383,348.275z"/>
			<path fill="none" d="M248.398,335.443c1.347,0,2.405,0.192,3.234,0.587c0.423,0.198,0.549,0.159,0.549,0.159
				c0.365-0.442-0.281-3.182-0.558-4.352c-0.113-0.479-0.219-0.928-0.294-1.308c-0.066-0.321-0.155-0.321-0.286-0.321
				c-1.037,0-3.4,1.85-4.77,3.732c-0.648,0.887-0.813,1.423-0.83,1.644c0.227,0.007,0.613-0.02,1.045-0.051
				C247.031,335.494,247.706,335.443,248.398,335.443z"/>
			<path fill="none" d="M292.927,342.958l-0.1-0.042c-2.072-0.801-4.646-1.799-6.172-1.799c-0.262,0-0.717,0.033-0.848,0.253
				c-0.096,0.159-0.313,0.852,0.9,3.135c1.602,3.013,1.471,6.663,1.356,9.885c-0.098,2.736-0.187,5.323,0.927,6.482
				c0.507,0.524,1.239,0.783,2.332,0.789c3.971-0.018,8.595-8.876,8.785-10.389C300.369,349.186,297.266,344.633,292.927,342.958z
				 M296.598,351.452c-0.082,0.673-1.846,4.456-4.012,4.456c-1.787,0-1.927-4.142-1.927-5.414c0-0.644,0.038-1.566,0.224-2.32
				c0.296-1.23,0.9-1.489,1.354-1.489c0.139,0,0.278,0.026,0.418,0.08C294.36,347.421,296.772,350.051,296.598,351.452z"/>
			<path fill="none" d="M282.421,371.738c-0.474-0.51-1.403-1.235-2.316-1.235c-0.15,0-0.299,0.021-0.437,0.06
				c-0.736,1.443-1.345,2.938-1.524,3.715C279.467,373.815,281.821,372.423,282.421,371.738z"/>
			<path fill="none" d="M257.082,351.782c-1.551-6.974-5.11-9.044-7.825-9.556c-0.516-0.1-1.047-0.148-1.573-0.148
				c-7.268,0-15.104,9.461-24.635,23.664c-6.049,9.016-16.509,19.4-26.239,22.285c-1.207,0.358-2.205,1.166-2.807,2.274
				c-0.603,1.106-0.734,2.385-0.377,3.593c0.589,1.989,2.449,3.381,4.522,3.381c0.454,0,0.905-0.066,1.343-0.197
				c10.701-3.17,22.732-13.163,31.398-26.077l0.124-0.184c5.362-7.995,10.874-15.799,14.14-15.799c0.535,0,1.013,0.197,1.389,0.573
				c3.593,3.591-0.016,15.29-5.639,23.958c-5.242,8.082-15.428,19.236-34.187,26.486c-1.175,0.456-2.106,1.341-2.614,2.493
				c-0.51,1.153-0.54,2.437-0.085,3.611c0.697,1.808,2.468,3.02,4.403,3.02c0.579,0,1.152-0.106,1.701-0.318
				c21.117-8.162,32.701-20.902,38.701-30.155C256.084,373.49,259.173,361.189,257.082,351.782z M208.688,411.135
				c-0.089,0.033-0.182,0.049-0.27,0.049c-0.299,0-0.58-0.179-0.695-0.478c-0.146-0.381,0.042-0.813,0.427-0.963
				c33.776-13.058,47.021-41.362,43.595-56.778c-0.725-3.264-1.902-5.068-3.5-5.37c-5.721-1.065-16.962,15.684-20.658,21.193
				c-8.049,11.995-19.522,21.604-29.224,24.479c-0.394,0.115-0.813-0.108-0.927-0.504c-0.115-0.395,0.107-0.811,0.504-0.928
				c9.39-2.78,20.542-12.154,28.409-23.878c10.712-15.967,17.556-22.694,22.173-21.827c2.238,0.423,3.812,2.612,4.679,6.511
				C256.743,368.583,243.245,397.775,208.688,411.135z"/>
			<path fill="none" d="M306.776,353.39c0.219-1.73-1.436-4.972-4.21-8.25c-2.982-3.524-6.582-6.332-9.622-7.505
				c-2.787-1.077-5.906-1.724-8.338-1.724c-1.633,0-3.752,0.29-4.578,1.66c-0.736,1.228-0.378,3.278,1.036,5.938
				c2.434,4.584,2.294,9.622,2.17,14.068c-0.106,3.766-0.194,7.036,1.418,8.695c0.89,0.921,2.316,0.396,4.358,1.396h0.056
				c6.239,0,8.617-3.066,11.907-7.281l0.577-0.745c1.655-2.107,2.852-3.147,3.722-3.899
				C306.288,354.867,306.628,354.583,306.776,353.39z M301.633,351.216c-0.234,1.877-5.204,11.453-10.23,11.453h-0.011
				c-1.533,0-2.668-0.168-3.476-1.008c-1.551-1.615-1.454-4.25-1.341-7.445c0.108-3.033,0.23-6.412-1.184-9.074
				c-1.161-2.186-1.436-3.617-0.86-4.568c0.387-0.648,1.104-0.96,2.124-0.96c1.807,0,4.418,1.016,6.721,1.902l0.111-0.135
				C297.921,343.091,302.031,348.027,301.633,351.216z"/>
			<path fill="none" d="M366.706,373.226c-23.227-5.648-32.381-14.325-44.127-31.144c-11.404-16.341-21.123-25.413-39.775-25.413
				h-0.412c-0.221,0-0.493,0.212-0.813,0.212c-6.939,0-19.196,1.433-23.347,10.295c-1.914,4.082,0.54,9.185,2.911,14.065
				c1.122,2.307,2.279,4.718,2.94,6.955c2.124,7.184,1.418,12.855,0.6,19.411c-0.953,7.624-6.94,19.452-14.898,29.423
				c-9.803,12.281-25.635,21.865-32.637,25.213c-2.348,1.121-3.343,3.948-2.222,6.298c0.779,1.63,2.451,2.685,4.262,2.685
				c0.705,0,1.389-0.157,2.031-0.465c8.289-3.962,26.621-14.588,36.679-26.436c8.646-10.182,14.4-26.86,16.161-35.588
				c3.295-16.335-0.142-23.684-2.416-28.551c-1.031-2.204-1.845-3.947-1.52-5.735c0.785-4.318,4.531-6.511,11.128-6.511
				c1.031,0,1.965,0.053,2.644,0.089c0.41,0.024,0.742,0.042,0.967,0.042c12.434,0,21.302,9.055,30.793,22.65
				c13.074,18.723,23.566,25.533,48.82,31.677c0.369,0.091,0.748,0.135,1.119,0.135c2.182,0,4.066-1.482,4.582-3.606
				c0.299-1.223,0.104-2.491-0.553-3.568C368.967,374.282,367.931,373.525,366.706,373.226z M366.313,377.99
				c-0.097,0.4-0.5,0.646-0.9,0.546c-25.535-6.212-34.612-14.313-46.475-31.308c-12.234-17.521-24.148-24.137-41.129-22.829
				c-5.697,0.438-9.447,2.131-11.15,5.028c-2.69,4.584-0.018,11.578,2.226,16.438c3.43,7.432,2.644,12.694,1.735,18.79
				c-0.176,1.168-0.354,2.376-0.514,3.644c-1.007,8.046-9.142,23.234-15.814,31.832c-9.079,11.696-27.137,23.385-34.787,27.046
				c-0.102,0.049-0.213,0.073-0.318,0.073c-0.279,0-0.547-0.157-0.676-0.425c-0.177-0.372-0.02-0.816,0.353-0.996
				c7.303-3.49,25.434-15.254,34.252-26.612c6.553-8.447,14.535-23.296,15.513-31.104c0.16-1.286,0.341-2.503,0.516-3.68
				c0.912-6.097,1.633-10.913-1.612-17.94c-2.386-5.168-5.201-12.633-2.157-17.82c1.965-3.346,6.108-5.283,12.323-5.761
				c17.354-1.337,30.048,5.681,42.462,23.464c11.635,16.664,20.544,24.613,45.608,30.713
				C366.166,377.184,366.411,377.589,366.313,377.99z"/>
			<path fill="#43424C" d="M197.613,286.883c0.135,0.11,0.301,0.164,0.462,0.164c0.219,0,0.436-0.098,0.584-0.281
				c13.883-17.427,42.896-38.493,78.98-40.524c14.345-0.808,28.524,1.522,42.148,6.918c15.336,6.08,30.046,16.098,43.725,29.783
				c0.29,0.29,0.762,0.29,1.054,0c0.292-0.292,0.292-0.763,0-1.053c-13.823-13.83-28.704-23.962-44.23-30.115
				c-13.825-5.478-28.214-7.838-42.778-7.021c-36.577,2.057-65.988,23.418-80.066,41.084
				C197.237,286.158,197.29,286.626,197.613,286.883z"/>
			<path fill="#43424C" d="M195.963,295.698c0.135,0.106,0.298,0.157,0.458,0.157c0.221,0,0.442-0.1,0.588-0.29
				c14.244-18.316,43.996-40.478,80.963-42.65c14.65-0.858,29.146,1.54,43.072,7.133c15.659,6.29,30.686,16.666,44.662,30.843
				c0.289,0.294,0.763,0.297,1.055,0.007c0.292-0.288,0.297-0.761,0.005-1.056c-14.117-14.32-29.316-24.812-45.166-31.177
				c-14.133-5.677-28.845-8.108-43.715-7.236c-37.462,2.201-67.614,24.659-82.053,43.223
				C195.58,294.974,195.638,295.443,195.963,295.698z"/>
			<path fill="#43424C" d="M194.314,304.509c0.135,0.102,0.294,0.153,0.451,0.153c0.224,0,0.447-0.104,0.593-0.295
				c14.622-19.217,45.124-42.478,82.971-44.78c14.956-0.907,29.757,1.566,43.987,7.355c15.976,6.498,31.313,17.229,45.581,31.892
				c0.291,0.297,0.762,0.302,1.056,0.016c0.297-0.287,0.301-0.759,0.014-1.053c-14.414-14.813-29.923-25.659-46.089-32.237
				c-14.438-5.873-29.46-8.385-44.637-7.46c-16.843,1.024-34.026,6.39-49.692,15.521c-13.52,7.878-25.728,18.478-34.376,29.843
				C193.923,303.792,193.987,304.259,194.314,304.509z"/>
			<path fill="#43424C" d="M192.666,313.322c0.133,0.1,0.29,0.148,0.442,0.148c0.23,0,0.451-0.104,0.6-0.299
				c8.795-11.799,21.184-22.783,34.881-30.925c15.803-9.396,33.135-14.923,50.123-15.987c15.262-0.957,30.361,1.594,44.89,7.582
				c16.29,6.71,31.932,17.792,46.493,32.94c0.283,0.296,0.757,0.306,1.053,0.02c0.297-0.285,0.306-0.757,0.021-1.053
				c-14.704-15.297-30.516-26.495-47-33.285c-14.736-6.075-30.06-8.664-45.548-7.692c-17.222,1.077-34.788,6.679-50.793,16.194
				c-13.862,8.241-26.404,19.362-35.313,31.314C192.266,312.609,192.334,313.076,192.666,313.322z"/>
			<path fill="#43424C" d="M192.042,326.584c11.058-14.894,24.232-27.591,38.098-36.714c15.904-10.472,32.491-16.268,49.292-17.229
				c31.247-1.792,61.9,13.089,91.081,44.222c0.283,0.301,0.755,0.316,1.054,0.033c0.301-0.281,0.316-0.753,0.033-1.051
				c-29.496-31.474-60.533-46.509-92.255-44.692c-17.066,0.976-33.897,6.854-50.025,17.471c-14.007,9.219-27.313,22.04-38.474,37.07
				c-0.246,0.33-0.175,0.799,0.152,1.043c0.135,0.1,0.29,0.146,0.444,0.146C191.671,326.883,191.896,326.782,192.042,326.584z"/>
			<path fill="#43424C" d="M192.376,335.822c11.549-13.18,24.175-26.846,38.237-37.458c16.694-12.604,32.78-18.752,50.621-19.352
				c15.832-0.521,30.876,4.03,47.334,14.327c10.806,6.764,22.493,15.52,36.717,26.586c0.71,0.553,1.429,1.089,2.14,1.613
				c1.726,1.278,3.358,2.488,4.535,3.745c0.283,0.301,0.754,0.316,1.056,0.035c0.301-0.28,0.316-0.752,0.035-1.053
				c-1.271-1.356-2.956-2.604-4.739-3.927c-0.699-0.516-1.411-1.047-2.112-1.589c-14.259-11.097-25.98-19.878-36.841-26.675
				c-16.721-10.462-32.033-15.088-48.173-14.553c-18.163,0.61-34.518,6.854-51.471,19.65c-14.168,10.697-26.858,24.425-38.46,37.668
				c-0.27,0.31-0.239,0.779,0.068,1.051c0.142,0.124,0.318,0.184,0.493,0.184C192.022,336.076,192.23,335.99,192.376,335.822z"/>
			<path fill="#43424C" d="M192.702,345.062c4.181-3.953,8.691-8.691,13.471-13.716c7.58-7.961,16.166-16.982,25.259-24.72
				c11.938-10.159,27.274-20.619,50.509-21.186c19.845-0.465,34.095,8.056,46.549,17.332l2.035,1.52
				c10.65,7.942,22.721,16.945,35.689,24.989c1.038,0.642,2.078,1.21,3.087,1.761c1.696,0.928,3.303,1.801,4.11,2.664
				c0.281,0.301,0.755,0.316,1.056,0.033c0.299-0.281,0.313-0.755,0.03-1.053c-0.969-1.036-2.597-1.926-4.481-2.952
				c-0.991-0.542-2.016-1.1-3.016-1.721c-12.916-8.009-24.958-16.991-35.582-24.914l-2.038-1.52
				c-12.668-9.44-27.174-18.117-47.475-17.631c-23.699,0.58-39.304,11.215-51.438,21.544c-9.152,7.786-17.77,16.839-25.371,24.825
				c-4.766,5.007-9.266,9.735-13.419,13.664c-0.301,0.281-0.313,0.752-0.03,1.053c0.147,0.155,0.345,0.232,0.542,0.232
				C192.372,345.268,192.556,345.202,192.702,345.062z"/>
			<path fill="#43424C" d="M192.563,354.46c0.157,0,0.316-0.051,0.448-0.152c6.521-4.953,13.806-12.797,21.519-21.106
				c5.672-6.108,11.537-12.425,17.719-18.312c12-11.425,25.778-22.61,50.4-23.022c20.633-0.329,33.409,9.432,45.765,20.337
				c7.054,6.223,21.461,17.931,38.729,26.422c1.385,0.682,2.81,1.241,4.066,1.732c1.624,0.64,3.156,1.239,3.65,1.768
				c0.283,0.304,0.754,0.316,1.055,0.035c0.299-0.28,0.314-0.754,0.033-1.053c-0.726-0.774-2.256-1.374-4.194-2.137
				c-1.232-0.482-2.622-1.029-3.953-1.684c-17.11-8.414-31.405-20.027-38.4-26.201c-12.376-10.923-25.199-20.717-45.737-20.717
				c-0.345,0-0.692,0.002-1.039,0.009c-25.155,0.416-39.724,12.313-51.4,23.431c-6.217,5.916-12.098,12.25-17.785,18.379
				c-7.669,8.259-14.912,16.06-21.328,20.934c-0.325,0.25-0.389,0.715-0.139,1.042C192.113,354.359,192.337,354.46,192.563,354.46z"
				/>
			<path fill="#43424C" d="M368.604,346.572c-14.154-5.438-28.805-15.146-39.188-25.972c-10.79-11.254-23.031-24.002-46.077-23.794
				c-25.617,0.252-38.416,11.619-51.361,25.323c-4.427,4.689-8.738,9.597-12.911,14.345c-9.582,10.904-18.635,21.203-26.507,25.787
				c-0.355,0.208-0.476,0.664-0.27,1.021c0.137,0.239,0.387,0.369,0.644,0.369c0.129,0,0.257-0.031,0.376-0.1
				c8.084-4.708,17.211-15.095,26.877-26.095c4.163-4.734,8.467-9.635,12.875-14.303c12.706-13.454,25.26-24.611,50.29-24.859
				c22.421-0.217,34.405,12.299,44.989,23.337c10.526,10.976,25.376,20.82,39.728,26.332c1.829,0.703,3.724,1.208,5.243,1.614
				c1.219,0.323,2.732,0.729,2.998,0.97c0.283,0.301,0.752,0.316,1.055,0.035c0.297-0.281,0.314-0.752,0.031-1.053
				c-0.484-0.519-1.542-0.819-3.699-1.395C372.21,347.74,370.36,347.249,368.604,346.572z"/>
			<path fill="#43424C" d="M369.407,355.868c-15.434-4.497-30.748-14.358-39.979-25.741l-1.095-1.152
				c-9.671-11.964-20.622-25.305-44.051-25.305c-0.077,0-0.155,0-0.228,0c-28.201,0-39.954,13.673-51.318,26.998
				c-3.082,3.614-6.148,7.232-9.115,10.844c-11.091,13.509-21.564,26.221-30.6,29.947c-0.381,0.156-0.563,0.569-0.405,0.947
				c0.12,0.288,0.398,0.453,0.69,0.453c0.093,0,0.188-0.022,0.283-0.058c9.381-3.87,19.969-16.768,31.184-30.427
				c2.963-3.606,6.022-7.379,9.098-10.984c11.146-13.066,22.672-26.721,50.188-26.721c0.078,0,0.152,0,0.23,0
				c22.705,0,32.965,12.719,42.883,24.998l1.1,1.359c9.406,11.605,25.011,21.674,40.717,26.254c2.5,0.727,5.018,1.126,6.855,1.414
				c0.828,0.126,1.762,0.276,2.022,0.369c0.285,0.206,0.682,0.187,0.944-0.063c0.301-0.281,0.314-0.746,0.035-1.045
				c-0.312-0.332-0.789-0.417-2.771-0.727C374.274,356.948,371.812,356.572,369.407,355.868z"/>
			<path fill="#43424C" d="M379.752,366.14c-0.051,0-4.949-0.005-9.535-0.972c-16.568-3.488-32.573-13.497-40.774-25.515
				c-0.596-0.868-1.186-1.766-1.785-2.655c-8.608-12.801-18.365-27.329-42.887-27.329c-0.033,0-0.063,0-0.098,0
				c-28.713,0-39.708,14.241-50.336,28.02l-0.837,1.061c-1.92,2.484-3.856,5.041-5.729,7.502
				c-12.437,16.346-24.182,31.791-34.272,34.313c-0.398,0.102-0.642,0.506-0.54,0.906c0.082,0.339,0.388,0.563,0.722,0.563
				c0.058,0,0.119-0.001,0.179-0.015c10.6-2.648,22.5-18.284,35.098-34.844c1.871-2.462,3.808-4.992,5.724-7.473l0.838-0.348
				c10.888-14.115,21.171-26.686,49.153-26.686c0.033,0,0.063,0,0.097,0c23.73,0,33.252,13.424,41.652,25.916
				c0.603,0.894,1.195,1.379,1.786,2.246c8.411,12.32,24.78,22.402,41.703,25.963c4.741,1,9.635,0.924,9.843,0.924
				c0.411,0,0.743-0.377,0.743-0.791C380.495,366.518,380.163,366.14,379.752,366.14z"/>
			<path fill="#43424C" d="M253.201,352.642c-0.867-3.898-2.44-6.088-4.679-6.511c-4.617-0.867-11.461,5.86-22.173,21.827
				c-7.867,11.724-19.02,21.098-28.409,23.878c-0.396,0.117-0.619,0.533-0.504,0.928c0.114,0.396,0.533,0.619,0.927,0.504
				c9.701-2.876,21.175-12.484,29.224-24.479c3.696-5.51,14.938-22.259,20.658-21.193c1.598,0.302,2.775,2.106,3.5,5.37
				c3.426,15.416-9.818,43.721-43.595,56.778c-0.385,0.15-0.573,0.582-0.427,0.963c0.115,0.299,0.396,0.478,0.695,0.478
				c0.088,0,0.181-0.016,0.27-0.049C243.245,397.775,256.743,368.583,253.201,352.642z"/>
			<path fill="#43424C" d="M250.075,385.499c7.474-11.524,10.637-24.253,8.46-34.04c-1.726-7.766-5.849-10.106-9.002-10.699
				c-0.608-0.115-1.229-0.172-1.85-0.172c-7.953,0-15.794,9.307-25.871,24.324c-5.903,8.793-16.052,18.91-25.425,21.687
				c-1.594,0.469-2.902,1.533-3.695,2.991c-0.792,1.458-0.969,3.139-0.495,4.728c0.774,2.617,3.224,4.447,5.951,4.447
				c0.595,0,1.19-0.085,1.768-0.257c11.018-3.264,23.36-13.487,32.21-26.675l0.124-0.188c2.778-4.139,10.157-15.137,12.903-15.137
				c0.141,0,0.238,0.04,0.334,0.135c2.152,2.155,0.973,11.6-5.834,22.096c-5.122,7.897-15.084,18.801-33.474,25.908
				c-1.547,0.6-2.768,1.764-3.44,3.279c-0.673,1.518-0.71,3.206-0.113,4.752c0.921,2.379,3.248,3.976,5.795,3.976
				c0.766,0,1.518-0.142,2.238-0.423C232.148,407.925,243.954,394.934,250.075,385.499z M210.122,414.841
				c-0.549,0.212-1.122,0.318-1.701,0.318c-1.936,0-3.706-1.212-4.403-3.02c-0.455-1.175-0.425-2.458,0.085-3.611
				c0.508-1.152,1.439-2.037,2.614-2.493c18.759-7.25,28.944-18.404,34.187-26.486c5.623-8.668,9.231-20.367,5.639-23.958
				c-0.376-0.376-0.854-0.573-1.389-0.573c-3.266,0-8.777,7.804-14.14,15.799L230.89,371c-8.666,12.914-20.697,22.907-31.398,26.077
				c-0.438,0.131-0.889,0.197-1.343,0.197c-2.073,0-3.934-1.392-4.522-3.381c-0.357-1.208-0.226-2.486,0.377-3.593
				c0.602-1.108,1.6-1.916,2.807-2.274c9.73-2.885,20.19-13.27,26.239-22.285c9.531-14.203,17.367-23.664,24.635-23.664
				c0.526,0,1.058,0.049,1.573,0.148c2.715,0.512,6.274,2.582,7.825,9.556c2.091,9.407-0.998,21.708-8.259,32.904
				C242.823,393.939,231.239,406.679,210.122,414.841z"/>
			<path fill="#43424C" d="M240.423,368.297c0.142-0.386-0.06-0.814-0.447-0.956c-0.385-0.142-0.814,0.058-0.955,0.442
				c-0.084,0.234-8.844,23.321-39.301,34.336c-0.388,0.142-0.587,0.569-0.447,0.954c0.108,0.303,0.396,0.493,0.699,0.493
				c0.086,0,0.17-0.016,0.256-0.044C231.33,392.27,240.334,368.536,240.423,368.297z"/>
			<path fill="#43424C" d="M365.768,377.089c-25.064-6.1-33.974-14.049-45.608-30.713c-12.414-17.783-25.108-24.801-42.462-23.464
				c-6.215,0.478-10.358,2.415-12.323,5.761c-3.044,5.188-0.229,12.652,2.157,17.82c3.245,7.027,2.524,11.844,1.612,17.94
				c-0.175,1.177-0.355,2.394-0.516,3.68c-0.978,7.808-8.96,22.656-15.513,31.104c-8.818,11.358-26.949,23.122-34.252,26.612
				c-0.372,0.18-0.529,0.624-0.353,0.996c0.129,0.268,0.396,0.425,0.676,0.425c0.105,0,0.217-0.024,0.318-0.073
				c7.65-3.661,25.708-15.35,34.787-27.046c6.673-8.598,14.808-23.786,15.814-31.832c0.159-1.268,0.338-2.476,0.514-3.644
				c0.908-6.096,1.694-11.358-1.735-18.79c-2.243-4.86-4.916-11.854-2.226-16.438c1.703-2.897,5.453-4.59,11.15-5.028
				c16.98-1.308,28.895,5.308,41.129,22.829c11.862,16.994,20.939,25.096,46.475,31.308c0.4,0.1,0.804-0.146,0.9-0.546
				C366.411,377.589,366.166,377.184,365.768,377.089z"/>
			<path fill="#43424C" d="M367.058,371.777c-22.757-5.535-31.734-13.803-43.252-30.305c-11.423-16.358-21.793-25.803-41.029-25.803
				h-0.371c-0.224,0-0.503-0.036-0.826-0.036c-7.294,0-20.198,1.424-24.698,11.034c-2.213,4.729,0.397,10.094,2.923,15.291
				c1.144,2.354,2.225,4.572,2.852,6.691c1.938,6.553,1.471,11.406,0.549,18.787c-0.923,7.376-6.783,18.896-14.587,28.674
				c-9.633,12.068-25.217,21.494-32.112,24.793c-3.089,1.477-4.4,5.191-2.923,8.28c1.026,2.147,3.228,3.533,5.606,3.533
				c0.932,0,1.832-0.206,2.675-0.61c8.39-4.012,26.948-14.777,37.172-26.816c9.516-11.208,14.945-28.617,16.485-36.259
				c3.391-16.814-0.313-24.739-2.527-29.474c-0.953-2.042-1.644-3.518-1.404-4.839c0.648-3.56,3.807-5.287,9.663-5.287
				c0.991,0,1.863,0.046,2.563,0.086c0.442,0.024,0.801,0.045,1.048,0.045c11.788,0,20.348,8.798,29.571,22.011
				c13.327,19.088,24.007,26.024,49.69,32.274c0.484,0.117,0.979,0.177,1.471,0.177c2.872,0,5.35-1.951,6.029-4.743
				c0.394-1.613,0.135-3.283-0.727-4.697C370.033,373.167,368.67,372.171,367.058,371.777z M370.177,378.927
				c-0.516,2.124-2.4,3.606-4.582,3.606c-0.371,0-0.75-0.044-1.119-0.135c-25.254-6.144-35.746-12.954-48.82-31.677
				c-9.491-13.596-18.359-22.65-30.793-22.65c-0.225,0-0.557-0.018-0.967-0.042c-0.679-0.036-1.612-0.089-2.644-0.089
				c-6.597,0-10.343,2.192-11.128,6.511c-0.325,1.788,0.488,3.531,1.52,5.735c2.274,4.867,5.711,12.216,2.416,28.551
				c-1.761,8.728-7.516,25.406-16.161,35.588c-10.058,11.848-28.39,22.474-36.679,26.436c-0.643,0.308-1.326,0.465-2.031,0.465
				c-1.811,0-3.482-1.053-4.262-2.684c-1.121-2.35-0.126-5.175,2.222-6.299c7.002-3.348,22.834-12.925,32.637-25.203
				c7.958-9.974,13.945-21.795,14.898-29.418c0.818-6.556,1.524-12.217-0.6-19.398c-0.661-2.236-1.818-4.619-2.94-6.925
				c-2.371-4.883-4.825-9.934-2.911-14.016c4.15-8.862,16.407-10.402,23.347-10.402c0.319,0,0.592-0.212,0.813-0.212h0.412
				c18.652,0,28.371,9.072,39.775,25.413c11.746,16.818,20.9,25.388,44.127,31.034c1.225,0.299,2.261,1.109,2.918,2.188
				C370.28,376.382,370.476,377.705,370.177,378.927z"/>
			<path fill="#43424C" d="M347.186,428.259c-10.464-2.098-25.371-13.434-35.066-34.037c-4.429-9.41-12.759-20.295-21.768-20.295
				c-0.1,0-0.201,0.002-0.301,0.005c-6.29,0.17-11.63,5.562-15.874,16.021c-3.312,8.162-10.205,25.148-40.365,41.292
				c-1.229,0.657-2.289,1.229-3.174,1.734c-0.356,0.206-0.479,0.662-0.272,1.019c0.138,0.238,0.39,0.374,0.646,0.374
				c0.127,0,0.255-0.033,0.372-0.1c0.86-0.498,1.914-1.061,3.131-1.713c9.944-5.323,30.637-16.274,41.042-41.925
				c4.002-9.86,8.894-14.966,14.533-14.966c0.09,0,0.182,0,0.27,0c8.306,0,16.17,10.301,20.409,19.313
				c9.921,21.073,25.292,32.632,36.126,34.802c0.402,0.077,0.797-0.217,0.879-0.619
				C347.852,428.761,347.591,428.339,347.186,428.259z"/>
			<path fill="#43424C" d="M339.637,432.58c-19.07-5.721-26.021-20.156-32.157-32.894c-2.231-4.637-4.34-9.015-6.869-12.537
				c-3.154-4.394-6.42-6.423-9.696-6.018c-5.938,0.721-9.776,9.219-10.81,11.808c-2.438,6.093-7.545,13.656-15.176,22.478
				c-7.13,8.25-19.65,17.117-28.207,22.206c-0.354,0.21-0.469,0.668-0.259,1.021c0.139,0.234,0.387,0.365,0.639,0.365
				c0.131,0,0.264-0.033,0.381-0.104c8.655-5.148,21.329-14.131,28.575-22.512c7.739-8.949,12.932-16.657,15.43-22.902
				c1.975-4.936,5.535-10.387,9.605-10.883c2.697-0.33,5.496,1.491,8.308,5.409c2.451,3.416,4.533,7.737,6.737,12.314
				c5.957,12.371,13.371,27.768,33.07,33.677c0.394,0.117,0.81-0.104,0.929-0.5C340.255,433.113,340.033,432.7,339.637,432.58z"/>
			<path fill="#43424C" d="M334.788,437.929c-0.664-0.331-1.361-0.675-2.089-1.028c-9.353-4.556-23.48-11.44-30.764-33.288
				c-3.051-9.144-5.159-14.714-10.058-14.119c-3.289,0.402-5.75,5.558-8.6,11.526c-1.114,2.339-2.271,4.757-3.521,6.982
				c-9.65,17.153-23.186,25.388-30.456,29.81c-1.668,1.016-2.986,1.816-3.9,2.507c-0.329,0.246-0.394,0.715-0.146,1.042
				c0.146,0.195,0.369,0.297,0.595,0.297c0.155,0,0.314-0.049,0.447-0.15c0.856-0.642,2.146-1.428,3.78-2.423
				c7.385-4.491,21.138-12.858,30.979-30.35c1.273-2.27,2.442-4.712,3.57-7.073c2.547-5.34,4.958-10.385,7.432-10.689
				c2.77-0.337,4.564,1.406,8.463,13.112c7.484,22.442,21.951,29.493,31.525,34.157c0.722,0.354,1.416,0.69,2.076,1.02
				c0.369,0.182,0.813,0.033,1-0.334C335.306,438.56,335.157,438.111,334.788,437.929z"/>
			<path fill="#43424C" d="M245.505,337.078c0.301,0,0.668-0.028,1.093-0.057c0.544-0.043,1.163-0.087,1.801-0.087
				c1.119,0,1.972,0.144,2.597,0.442c0.435,0.206,0.814,0.306,1.16,0.306c0.467,0,0.883-0.194,1.159-0.544
				c0.78-0.989,0.394-2.961-0.239-5.642c-0.108-0.463-0.212-0.895-0.285-1.262c-0.192-0.951-0.843-1.515-1.746-1.515
				c-2.378,0-6.223,3.957-6.938,6.086c-0.4,1.188,0.088,1.783,0.416,2.031C244.799,337.049,245.159,337.078,245.505,337.078z
				 M246.274,333.941c1.369-1.883,3.732-3.732,4.77-3.732c0.131,0,0.22,0,0.286,0.321c0.075,0.38,0.181,0.829,0.294,1.308
				c0.276,1.17,0.923,3.909,0.558,4.352c0,0-0.126,0.039-0.549-0.159c-0.829-0.395-1.888-0.587-3.234-0.587
				c-0.692,0-1.367,0.051-1.909,0.091c-0.432,0.031-0.818,0.058-1.045,0.051C245.462,335.364,245.626,334.828,246.274,333.941z"/>
			<path fill="#43424C" d="M322.666,440.23c-16.15-7.066-22.528-22.544-25.923-33.57c-0.794-2.584-1.878-3.9-3.314-4.026
				c-3.263-0.301-6.698,5.858-11.553,15.283l-0.668,1.29c-5.009,9.692-17.553,17.726-24.29,22.042
				c-0.57,0.364-1.106,0.708-1.6,1.026c-0.345,0.224-0.442,0.686-0.219,1.028c0.142,0.222,0.383,0.343,0.626,0.343
				c0.14,0,0.279-0.039,0.402-0.121c0.494-0.318,1.027-0.657,1.596-1.024c6.856-4.392,19.615-12.562,24.81-22.608l0.666-1.297
				c3.157-6.123,7.462-14.484,10-14.484c0.033,0,0.066,0.002,0.1,0.007c0.729,0.064,1.446,1.122,2.02,2.98
				c3.478,11.308,10.036,27.186,26.748,34.497c0.378,0.166,0.816-0.006,0.979-0.385C323.215,440.834,323.04,440.396,322.666,440.23z
				"/>
			<path fill="#43424C" d="M350.876,421.974c-5.276-1.405-21.332-5.688-40.268-43.007c-4.67-9.206-3.283-13.374-2.042-15.04
				c1.159-1.551,2.956-2.006,4.224-1.778c1.301,0.236,2.883,2.199,4.885,4.686c2.909,3.61,6.892,8.556,13.394,12.764
				c7.774,5.03,16.624,6.949,23.737,8.486c3.357,0.728,6.261,1.358,8.541,2.188c0.388,0.142,0.816-0.061,0.956-0.449
				c0.142-0.383-0.06-0.813-0.444-0.954c-2.379-0.864-5.325-1.502-8.736-2.243c-6.994-1.511-15.697-3.398-23.244-8.281
				c-6.299-4.077-10.196-8.913-13.042-12.444c-2.283-2.836-3.934-4.883-5.778-5.219c-1.598-0.29-4.042,0.152-5.684,2.354
				c-1.77,2.374-2.876,7.182,1.904,16.604c8.255,16.276,21.516,38.521,41.215,43.774c0.064,0.02,0.131,0.024,0.19,0.024
				c0.332,0,0.633-0.22,0.722-0.552C351.511,422.49,351.274,422.08,350.876,421.974z"/>
			<path fill="#43424C" d="M289.009,369.366c-0.064-0.011-0.121-0.022-0.184-0.035v0.035H289.009z"/>
			<path fill="#43424C" d="M306.245,356.868c1.078-0.932,1.793-1.546,2.012-3.308c0.582-4.661-7.98-14.692-14.777-17.313
				c-2.951-1.14-6.268-1.816-8.873-1.816c-2.895,0-4.916,0.831-5.854,2.389c-1.035,1.724-0.701,4.23,0.996,7.421
				c2.247,4.236,2.114,9.098,1.997,13.358c-0.112,4.102,0.132,7.703,2.181,9.818c1.154,1.188,2.586,1.442,5.586,1.914v-0.091
				c6,0,9.439-3.516,12.857-7.89l0.522-0.799C304.458,358.556,305.423,357.581,306.245,356.868z M301.551,359.691l-0.577,0.697
				c-3.29,4.215-5.668,7.281-11.907,7.281h-0.056c-2.042-1-3.469-0.476-4.358-1.396c-1.612-1.659-1.524-4.981-1.418-8.744
				c0.124-4.445,0.264-9.461-2.17-14.045c-1.414-2.658-1.772-4.699-1.036-5.925c0.826-1.369,2.945-1.652,4.578-1.652
				c2.432,0,5.551,0.649,8.338,1.725c3.04,1.173,6.64,3.987,9.622,7.507c2.774,3.281,4.429,6.522,4.21,8.251
				c-0.148,1.192-0.488,1.503-1.504,2.379C304.402,356.523,303.206,357.584,301.551,359.691z"/>
			<path fill="#43424C" d="M293.487,341.572l-0.111-0.042c-2.303-0.89-4.914-1.892-6.721-1.892c-1.021,0-1.737,0.334-2.124,0.979
				c-0.575,0.956-0.301,2.432,0.86,4.617c1.414,2.662,1.292,6.129,1.184,9.164c-0.113,3.196-0.21,5.647,1.341,7.263
				c0.808,0.84,1.942,1.008,3.476,1.008h0.011c5.026,0,9.996-9.576,10.23-11.453C302.031,348.027,297.921,343.28,293.487,341.572z
				 M300.108,351.273c-0.19,1.513-4.814,10.371-8.785,10.389c-1.093-0.006-1.825-0.265-2.332-0.789
				c-1.113-1.159-1.024-3.746-0.927-6.482c0.114-3.222,0.245-6.872-1.356-9.885c-1.213-2.283-0.996-2.976-0.9-3.135
				c0.131-0.22,0.586-0.253,0.848-0.253c1.526,0,4.1,0.998,6.172,1.799l0.1,0.042C297.266,344.633,300.369,349.186,300.108,351.273z
				"/>
			<path fill="#43424C" d="M292.655,346.764c-0.14-0.054-0.279-0.08-0.418-0.08c-0.454,0-1.059,0.259-1.354,1.489
				c-0.186,0.754-0.224,1.677-0.224,2.32c0,1.272,0.14,5.414,1.927,5.414c2.166,0,3.93-3.783,4.012-4.456
				C296.772,350.051,294.36,347.421,292.655,346.764z M292.743,354.394c-0.588-0.904-0.81-4.986-0.36-6.119
				c1.255,0.655,2.717,2.496,2.739,2.98C294.998,351.868,293.655,354.144,292.743,354.394z"/>
			<path fill="#43424C" d="M276.781,375.317c0.19,0.316,0.518,0.407,0.897,0.407l0,0c0.071,0,0.146,0.082,0.224,0.07
				c1.412-0.245,5.48-2.362,6.022-3.726c0.146-0.367,0.104-0.726-0.113-1.016c-0.535-0.714-2-2.051-3.707-2.051
				c-0.447,0-0.879,0.098-1.281,0.281l-0.23,0.11l-0.117,0.182C276.876,372.631,276.306,374.532,276.781,375.317z M279.668,370.562
				c0.138-0.039,0.286-0.06,0.437-0.06c0.913,0,1.843,0.726,2.316,1.235c-0.6,0.686-2.954,2.077-4.277,2.539
				C278.323,373.5,278.932,372.005,279.668,370.562z"/>
			<path fill="#43424C" d="M300.303,368.516c-0.639,0.091-1.427,0.67-1.765,0.936c-1.182,0.937-0.977,2.376-0.01,3.352
				c0.826,0.837,1.963,1.594,3.033,2.082c0.676,0.306,1.507,0.274,1.987-0.343C304.834,372.906,301.929,367.536,300.303,368.516z
				 M300.388,372.222c-0.388-0.274-0.809-0.58-1.049-0.998c-0.215-0.376,0.52-0.836,0.763-1.049c0.087-0.077,0.241-0.188,0.407-0.32
				c0.04,0.018,0.077,0.033,0.098,0.042c0.039,0.018,0.102,0.063,0.189,0.15c0.314,0.31,0.531,0.696,0.73,1.086
				c0.346,0.661,0.722,1.518,0.715,2.268C301.568,373.179,300.944,372.62,300.388,372.222z"/>
			<path fill="#43424C" d="M302.356,373.668c0.011-0.013,0.021-0.04,0.035-0.07C302.336,373.623,302.372,373.651,302.356,373.668z"
				/>
			<path fill="#43424C" d="M365.341,396.45c-3.328-0.356-11.416-2.376-19.858-5.416c-9.916-3.568-17.299-7.449-20.788-10.934
				c-7.449-7.432-9.023-6.159-9.542-5.739c-0.612,0.496-2.247,1.814,4.93,12.963c8.048,12.506,19.911,27.455,40.376,32.121
				c0.053,0.016,0.11,0.021,0.166,0.021c0.338,0,0.646-0.235,0.726-0.58c0.091-0.402-0.159-0.801-0.56-0.892
				c-10.474-2.39-24.423-8.124-39.456-31.476c-6.068-9.432-5.245-10.989-5.263-10.989c0.357-0.135,2.541,0.611,7.57,5.627
				c8.4,8.385,34.418,16.013,41.539,16.773c0.408,0.047,0.775-0.252,0.819-0.659C366.044,396.859,365.747,396.492,365.341,396.45z"
				/>
			<path fill="#43424C" d="M362.772,403.078c-14.148-2.177-22.111-6.261-25.596-8.502c-0.654-0.423-1.238-0.746-1.748-0.423
				c-0.27,0.173-0.411,0.482-0.367,0.813c0.224,1.69,12.009,12.021,25.339,16.186c0.075,0.022,0.148,0.033,0.224,0.033
				c0.314,0,0.61-0.203,0.708-0.522c0.124-0.394-0.093-0.812-0.487-0.936c-9.274-2.898-17.383-8.635-21.498-12.179
				c4.426,2.308,11.89,5.263,23.197,7.002c0.412,0.062,0.79-0.215,0.852-0.622C363.458,403.52,363.179,403.14,362.772,403.078z"/>
		</g>
	</g>
	<g>
		<g>
			<g>
				<circle fill="#878787" cx="418.894" cy="249.638" r="1.36"/>
			</g>
			<g>
				<circle fill="#878787" cx="157.239" cy="408.892" r="2.514"/>
			</g>
			<g>
				<circle fill="#878787" cx="367.063" cy="243.119" r="2.149"/>
			</g>
			<g>
				<circle fill="#878787" cx="365.787" cy="395.443" r="1.71"/>
			</g>
			<g>
				<circle fill="#878787" cx="314.919" cy="234.058" r="0.963"/>
			</g>
			<g>
				<path fill="#878787" d="M211.115,261.665c0,0.739-0.598,1.339-1.336,1.339c-0.737,0-1.337-0.6-1.337-1.339
					c0-0.736,0.6-1.336,1.337-1.336C210.518,260.329,211.115,260.928,211.115,261.665z"/>
			</g>
			<g>
				<circle fill="#878787" cx="222.462" cy="182.121" r="2.414"/>
			</g>
			<g>
				<circle fill="#878787" cx="215.5" cy="225.203" r="0.865"/>
			</g>
			<g>
				<circle fill="#878787" cx="367.909" cy="269.388" r="1.303"/>
			</g>
			<g>
				<circle fill="#878787" cx="143.652" cy="249.509" r="1.864"/>
			</g>
			<g>
				<circle fill="#878787" cx="169.923" cy="385.279" r="0.845"/>
			</g>
			<g>
				<circle fill="#878787" cx="440.777" cy="404.77" r="0.406"/>
			</g>
			<g>
				<circle fill="#878787" cx="92.716" cy="297.644" r="1.28"/>
			</g>
			<g>
				<circle fill="#878787" cx="62.817" cy="264.868" r="0.263"/>
			</g>
			<g>
				<circle fill="#878787" cx="92.923" cy="393.062" r="2.288"/>
			</g>
			<g>
				<path fill="#878787" d="M88.585,313.394c0,0.15-0.124,0.272-0.274,0.272c-0.148,0-0.271-0.122-0.271-0.272
					c0-0.147,0.122-0.27,0.271-0.27C88.461,313.125,88.585,313.247,88.585,313.394z"/>
			</g>
			<g>
				<path fill="#878787" d="M75.697,303.892c0,0.664-0.54,1.204-1.203,1.204c-0.661,0-1.201-0.54-1.201-1.204
					c0-0.663,0.54-1.201,1.201-1.201C75.157,302.691,75.697,303.229,75.697,303.892z"/>
			</g>
		</g>
	</g>
	<g>
		<g>
			<g>
				<circle fill="#878787" cx="461.978" cy="255.437" r="1.36"/>
			</g>
			<g>
				<circle fill="#878787" cx="410.146" cy="248.917" r="2.149"/>
			</g>
			<g>
				<circle fill="#878787" cx="408.871" cy="401.244" r="1.71"/>
			</g>
			<g>
				<circle fill="#878787" cx="452.156" cy="401.207" r="1.915"/>
			</g>
			<g>
				<circle fill="#878787" cx="382.402" cy="293.304" r="2.192"/>
			</g>
			<g>
				<circle fill="#878787" cx="358.002" cy="239.859" r="0.962"/>
			</g>
			<g>
				<circle fill="#878787" cx="410.993" cy="275.187" r="1.303"/>
			</g>
			<g>
				<circle fill="#878787" cx="483.861" cy="410.569" r="0.406"/>
			</g>
			<g>
				<circle fill="#878787" cx="135.8" cy="303.446" r="1.28"/>
			</g>
			<g>
				<path fill="#878787" d="M106.164,270.667c0,0.146-0.119,0.264-0.266,0.264c-0.142,0-0.261-0.117-0.261-0.264
					c0-0.146,0.119-0.261,0.261-0.261C106.045,270.406,106.164,270.521,106.164,270.667z"/>
			</g>
			<g>
				<circle fill="#878787" cx="136.006" cy="398.861" r="2.286"/>
			</g>
			<g>
				<circle fill="#878787" cx="131.396" cy="319.195" r="0.272"/>
			</g>
			<g>
				<path fill="#878787" d="M118.781,309.691c0,0.664-0.54,1.203-1.203,1.203c-0.661,0-1.202-0.539-1.202-1.203
					s0.541-1.201,1.202-1.201C118.241,308.49,118.781,309.027,118.781,309.691z"/>
			</g>
		</g>
	</g>
</g>
</svg>
