<?xml version="1.0" encoding="utf-8"?>
<!-- Generator: Adobe Illustrator 16.0.0, SVG Export Plug-In . SVG Version: 6.00 Build 0)  -->
<!DOCTYPE svg PUBLIC "-//W3C//DTD SVG 1.1//EN" "http://www.w3.org/Graphics/SVG/1.1/DTD/svg11.dtd">
<svg version="1.1" id="Calque_1" xmlns="http://www.w3.org/2000/svg" xmlns:xlink="http://www.w3.org/1999/xlink" x="0px" y="0px"
	 width="841.89px" height="595.281px" viewBox="0 0 841.89 595.281" enable-background="new 0 0 841.89 595.281"
	 xml:space="preserve">
<g>
	<g>
		<g>
			<path fill="#B7CD05" d="M232.333,473.068h-6.648v-28.754c0-4.146-1.555-7.686-4.577-10.708c-3.021-3.022-6.476-4.49-10.534-4.49
				s-7.686,1.468-10.707,4.49c-3.022,3.022-4.49,6.563-4.49,10.708v28.754h-6.649v-28.063c0-6.39,2.072-11.657,6.218-15.889
				c4.145-4.231,9.325-6.39,15.629-6.39c6.217,0,11.398,2.158,15.543,6.39s6.217,9.499,6.217,15.889V473.068z"/>
			<path fill="#B7CD05" d="M289.753,473.068h-6.39v-7.686c-5.354,6.131-11.917,9.066-19.688,8.809
				c-6.821-0.26-12.606-2.85-17.355-7.858c-4.75-5.009-7.167-10.966-7.167-17.874c0-7.168,2.59-13.385,7.685-18.479
				c5.095-5.182,11.226-7.6,18.393-7.34c6.908,0.259,12.779,2.85,17.615,7.943c4.836,5.009,7.167,10.967,6.908,17.789v0.345V473.068
				z M245.801,447.94c-0.086,5.181,1.555,9.758,5.095,13.644s7.857,5.871,12.866,6.131c5.439,0.259,10.017-1.641,13.815-5.613
				c3.886-4.059,5.699-8.807,5.613-14.247c-0.087-5.181-1.986-9.585-5.526-13.298c-3.541-3.713-7.858-5.526-12.866-5.526
				c-5.268,0-9.671,1.813-13.385,5.526C247.7,438.269,245.887,442.673,245.801,447.94z"/>
			<path fill="#B7CD05" d="M314.618,474.104c-12.003,0-17.961-5.095-17.961-15.284v-52.241h6.648v17.184h11.313v6.131h-11.313
				v27.805c0,7.34,3.8,10.966,11.313,10.966V474.104z"/>
			<path fill="#B7CD05" d="M363.75,473.068h-6.563V444.4c0-4.145-1.555-7.686-4.577-10.707c-3.021-3.022-6.648-4.49-10.707-4.404
				c-4.145,0.086-7.686,1.469-10.534,4.231c-2.85,2.677-4.231,6.13-4.231,10.362v29.186h-6.821v-66.576h6.648v24.352
				c3.713-4.922,8.549-7.513,14.421-7.771c6.13-0.26,11.312,1.727,15.715,6.044c4.404,4.317,6.649,9.671,6.649,15.976V473.068z"/>
			<path fill="#B7CD05" d="M420.565,473.068h-6.39v-7.686c-5.354,6.131-11.917,9.066-19.688,8.809
				c-6.821-0.26-12.606-2.85-17.355-7.858c-4.75-5.009-7.167-10.966-7.167-17.874c0-7.168,2.59-13.385,7.685-18.479
				c5.095-5.182,11.226-7.6,18.393-7.34c6.908,0.259,12.779,2.85,17.615,7.943c4.836,5.009,7.167,10.967,6.908,17.789v0.345V473.068
				z M376.613,447.94c-0.086,5.181,1.555,9.758,5.095,13.644s7.857,5.871,12.866,6.131c5.439,0.259,10.017-1.641,13.815-5.613
				c3.886-4.059,5.699-8.807,5.613-14.247c-0.087-5.181-1.986-9.585-5.526-13.298c-3.541-3.713-7.858-5.526-12.866-5.526
				c-5.268,0-9.671,1.813-13.385,5.526C378.513,438.269,376.699,442.673,376.613,447.94z"/>
			<path fill="#B7CD05" d="M434.032,473.068h-6.563v-66.576h6.563V473.068z"/>
			<path fill="#B7CD05" d="M447.934,417.977h-6.477v-11.485h6.477V417.977z M447.934,473.068h-6.477v-49.219h6.477V473.068z"/>
			<path fill="#B7CD05" d="M504.923,456.92c-1.813,5.268-4.922,9.499-9.326,12.606c-4.403,3.109-9.239,4.664-14.593,4.75
				c-6.735,0.086-12.693-2.332-17.874-7.34c-5.182-5.095-7.858-11.053-7.944-18.047c-0.173-7.34,2.418-13.729,7.771-18.997
				c5.44-5.354,11.743-7.858,19.083-7.426c6.563,0.432,12.262,3.108,17.098,8.116c4.663,4.922,6.994,10.449,6.994,16.58v3.539
				h-44.211c0.518,4.923,2.591,9.067,6.304,12.262c3.713,3.195,8.03,4.836,13.038,4.75c7.771-0.086,13.298-3.713,16.666-10.794
				H504.923z M499.655,444.659c-0.949-4.576-3.108-8.29-6.476-11.139c-3.368-2.85-7.427-4.317-12.176-4.404
				c-4.749-0.086-8.894,1.382-12.435,4.231c-3.54,2.85-5.698,6.648-6.648,11.312H499.655z"/>
			<path fill="#B7CD05" d="M534.695,448.027v-41.535h6.477v24.869c4.835-5.612,10.88-8.462,18.133-8.721
				c7.081-0.26,13.212,2.158,18.307,7.34c5.181,5.181,7.771,11.311,7.771,18.479c0,6.908-2.418,12.865-7.167,17.874
				s-10.621,7.599-17.442,7.858c-7.081,0.258-13.212-2.246-18.479-7.427c-5.267-5.181-7.771-11.312-7.599-18.392V448.027z
				 M573.553,461.583c3.54-3.886,5.268-8.376,5.181-13.644c-0.086-5.181-1.985-9.585-5.699-13.298
				c-3.626-3.713-8.03-5.612-13.297-5.612c-5.009,0-9.326,1.813-12.866,5.526c-3.541,3.713-5.44,8.117-5.526,13.298
				c-0.173,5.44,1.641,10.188,5.526,14.247c3.886,3.973,8.462,5.872,13.815,5.613C565.781,467.455,570.013,465.469,573.553,461.583z
				"/>
			<path fill="#B7CD05" d="M641.593,473.068h-6.39v-7.686c-5.354,6.131-11.917,9.066-19.688,8.809
				c-6.821-0.26-12.606-2.85-17.355-7.858c-4.75-5.009-7.167-10.966-7.167-17.874c0-7.168,2.59-13.385,7.685-18.479
				c5.095-5.182,11.226-7.6,18.393-7.34c6.908,0.259,12.779,2.85,17.615,7.943c4.836,5.009,7.167,10.967,6.908,17.789v0.345V473.068
				z M597.641,447.94c-0.086,5.181,1.555,9.758,5.095,13.644s7.857,5.871,12.866,6.131c5.439,0.259,10.017-1.641,13.815-5.613
				c3.886-4.059,5.699-8.807,5.613-14.247c-0.087-5.181-1.986-9.585-5.526-13.298c-3.541-3.713-7.858-5.526-12.866-5.526
				c-5.268,0-9.671,1.813-13.385,5.526C599.54,438.269,597.727,442.673,597.641,447.94z"/>
			<path fill="#B7CD05" d="M655.06,473.068h-6.563v-66.576h6.563V473.068z"/>
			<path fill="#B7CD05" d="M669.047,473.068h-6.563v-66.576h6.563V473.068z"/>
		</g>
	</g>
	<g>
		<g>
			<path fill="#3C3C3B" d="M195.423,509.645c-1.052-0.579-1.878-1.38-2.477-2.406c-0.6-1.026-0.898-2.175-0.899-3.447
				c-0.002-1.272,0.297-2.421,0.895-3.448c0.597-1.027,1.424-1.83,2.482-2.41c1.057-0.58,2.24-0.871,3.55-0.873
				c0.982,0,1.89,0.163,2.722,0.49c0.831,0.326,1.536,0.805,2.117,1.434l-0.889,0.889c-1.032-1.045-2.337-1.566-3.911-1.564
				c-1.046,0-1.996,0.24-2.852,0.72c-0.856,0.479-1.526,1.134-2.011,1.966s-0.726,1.764-0.725,2.797
				c0,1.033,0.243,1.965,0.729,2.795c0.484,0.831,1.156,1.486,2.013,1.963c0.857,0.479,1.808,0.717,2.854,0.717
				c1.587-0.002,2.89-0.532,3.909-1.59l0.889,0.887c-0.579,0.63-1.287,1.112-2.125,1.447c-0.836,0.334-1.746,0.502-2.729,0.502
				C197.656,510.512,196.476,510.224,195.423,509.645z"/>
			<path fill="#3C3C3B" d="M209.686,509.625c-1.064-0.584-1.896-1.387-2.495-2.406c-0.6-1.02-0.898-2.166-0.899-3.438
				c-0.002-1.272,0.297-2.418,0.895-3.439c0.597-1.021,1.427-1.824,2.491-2.41c1.063-0.587,2.25-0.881,3.561-0.882
				c1.31-0.001,2.49,0.288,3.543,0.866c1.052,0.579,1.881,1.381,2.486,2.407s0.907,2.175,0.909,3.446
				c0.001,1.272-0.301,2.422-0.904,3.449s-1.431,1.83-2.482,2.41c-1.051,0.58-2.231,0.871-3.541,0.871
				C211.938,510.501,210.751,510.208,209.686,509.625z M216.079,508.542c0.844-0.473,1.504-1.128,1.983-1.966
				c0.478-0.838,0.716-1.773,0.716-2.806c-0.001-1.033-0.241-1.968-0.721-2.805c-0.479-0.838-1.142-1.492-1.985-1.963
				c-0.845-0.473-1.789-0.707-2.834-0.707c-1.046,0.001-1.993,0.238-2.843,0.711s-1.517,1.128-2.001,1.966
				c-0.484,0.839-0.726,1.773-0.725,2.806c0,1.033,0.243,1.969,0.729,2.805c0.484,0.838,1.153,1.492,2.003,1.964
				c0.852,0.472,1.799,0.707,2.845,0.706C214.292,509.253,215.236,509.015,216.079,508.542z"/>
			<path fill="#3C3C3B" d="M235.302,497.146l0.011,13.224l-1.152,0.001l-8.51-10.724l0.009,10.73l-1.398,0.001l-0.011-13.224
				l1.152-0.001l8.529,10.723l-0.009-10.729L235.302,497.146z"/>
			<path fill="#3C3C3B" d="M241.385,510.005c-0.9-0.313-1.597-0.729-2.088-1.244l0.547-1.078c0.479,0.479,1.115,0.865,1.909,1.161
				c0.793,0.296,1.612,0.442,2.456,0.442c1.184-0.002,2.071-0.219,2.662-0.654c0.592-0.436,0.889-0.999,0.888-1.691
				c0-0.529-0.162-0.951-0.483-1.266s-0.715-0.557-1.182-0.727c-0.466-0.17-1.114-0.354-1.945-0.556
				c-0.995-0.251-1.789-0.493-2.382-0.726c-0.592-0.232-1.099-0.588-1.521-1.066c-0.423-0.478-0.634-1.126-0.635-1.945
				c-0.001-0.667,0.176-1.275,0.528-1.823c0.352-0.548,0.893-0.985,1.623-1.313c0.729-0.328,1.637-0.493,2.72-0.494
				c0.756,0,1.495,0.104,2.22,0.311s1.352,0.493,1.881,0.857l-0.472,1.115c-0.555-0.364-1.147-0.639-1.776-0.82
				c-0.63-0.182-1.247-0.273-1.852-0.272c-1.159,0.001-2.031,0.226-2.615,0.673c-0.586,0.447-0.879,1.023-0.878,1.729
				c0,0.529,0.162,0.955,0.483,1.275c0.32,0.321,0.724,0.566,1.21,0.736c0.484,0.17,1.136,0.354,1.955,0.555
				c0.97,0.239,1.753,0.475,2.353,0.707c0.599,0.232,1.105,0.585,1.521,1.057c0.417,0.473,0.625,1.111,0.626,1.917
				c0.001,0.668-0.179,1.275-0.538,1.823c-0.357,0.549-0.908,0.983-1.651,1.306c-0.742,0.321-1.655,0.482-2.738,0.483
				C243.228,510.476,242.286,510.32,241.385,510.005z"/>
			<path fill="#3C3C3B" d="M262.477,509.14l0.001,1.209l-9.352,0.007l-0.011-13.224l9.068-0.008l0.001,1.209l-7.67,0.006
				l0.004,4.704l6.839-0.005l0.001,1.189l-6.839,0.006l0.004,4.912L262.477,509.14z"/>
			<path fill="#3C3C3B" d="M266.698,497.122l1.398-0.001l0.011,13.224l-1.398,0.001L266.698,497.122z"/>
			<path fill="#3C3C3B" d="M273.348,497.117l1.398-0.002l0.01,12.016l7.405-0.006l0.001,1.209l-8.804,0.006L273.348,497.117z"/>
			<path fill="#3C3C3B" d="M286.1,509.971c-0.9-0.314-1.597-0.729-2.088-1.245l0.547-1.078c0.479,0.479,1.115,0.866,1.909,1.161
				c0.793,0.296,1.612,0.442,2.456,0.442c1.184-0.001,2.071-0.219,2.662-0.654c0.592-0.436,0.889-0.998,0.888-1.691
				c0-0.529-0.162-0.951-0.483-1.266s-0.715-0.557-1.182-0.727c-0.466-0.17-1.114-0.354-1.945-0.555
				c-0.995-0.252-1.789-0.494-2.382-0.727c-0.592-0.232-1.099-0.588-1.521-1.065c-0.423-0.479-0.634-1.126-0.635-1.945
				c-0.001-0.667,0.176-1.275,0.528-1.823c0.352-0.549,0.893-0.986,1.623-1.314c0.729-0.328,1.637-0.492,2.72-0.494
				c0.756,0,1.495,0.104,2.22,0.311s1.352,0.493,1.881,0.857l-0.472,1.115c-0.555-0.364-1.147-0.638-1.776-0.82
				c-0.63-0.182-1.247-0.272-1.852-0.271c-1.159,0-2.031,0.225-2.615,0.672c-0.586,0.447-0.879,1.024-0.878,1.729
				c0,0.529,0.162,0.954,0.483,1.274c0.32,0.321,0.724,0.566,1.21,0.736c0.484,0.17,1.136,0.355,1.955,0.556
				c0.97,0.238,1.753,0.474,2.353,0.706c0.599,0.232,1.105,0.585,1.521,1.058c0.417,0.472,0.625,1.11,0.626,1.917
				c0.001,0.668-0.179,1.275-0.538,1.822c-0.357,0.549-0.908,0.984-1.651,1.306c-0.742,0.321-1.655,0.483-2.738,0.483
				C287.942,510.442,287.001,510.286,286.1,509.971z"/>
			<path fill="#3C3C3B" d="M303.56,504.706c-0.277-0.276-0.415-0.622-0.416-1.038c0-0.403,0.138-0.74,0.415-1.012
				c0.276-0.271,0.61-0.406,1-0.406c0.391,0,0.725,0.135,1.003,0.405c0.276,0.271,0.415,0.606,0.415,1.01
				c0.001,0.403-0.138,0.747-0.414,1.03s-0.61,0.426-1.001,0.426C304.172,505.121,303.838,504.983,303.56,504.706z"/>
			<path fill="#3C3C3B" d="M317.912,498.291l0.004,5.195l6.839-0.006l0.001,1.209l-6.839,0.006l0.005,5.61l-1.398,0.001
				l-0.011-13.224l9.068-0.007l0.001,1.209L317.912,498.291z"/>
			<path fill="#3C3C3B" d="M331.476,509.529c-1.064-0.584-1.896-1.387-2.495-2.406c-0.6-1.02-0.898-2.165-0.899-3.438
				c-0.002-1.271,0.297-2.418,0.895-3.439c0.597-1.02,1.427-1.823,2.491-2.41c1.063-0.586,2.25-0.88,3.561-0.881
				c1.31-0.001,2.49,0.288,3.543,0.866c1.052,0.579,1.881,1.381,2.486,2.407c0.605,1.025,0.907,2.175,0.909,3.447
				c0.001,1.271-0.301,2.421-0.904,3.447c-0.604,1.027-1.431,1.83-2.482,2.41c-1.051,0.581-2.231,0.871-3.541,0.873
				C333.728,510.406,332.541,510.115,331.476,509.529z M337.869,508.448c0.844-0.473,1.504-1.128,1.983-1.966
				c0.478-0.838,0.716-1.773,0.716-2.807c-0.001-1.032-0.241-1.967-0.721-2.805c-0.479-0.837-1.142-1.491-1.985-1.963
				c-0.845-0.472-1.789-0.707-2.834-0.706c-1.046,0.001-1.993,0.237-2.843,0.71c-0.85,0.474-1.517,1.129-2.001,1.967
				s-0.726,1.773-0.725,2.807c0,1.032,0.243,1.967,0.729,2.805c0.484,0.837,1.153,1.491,2.003,1.963
				c0.852,0.471,1.799,0.707,2.845,0.706C336.082,509.158,337.026,508.921,337.869,508.448z"/>
			<path fill="#3C3C3B" d="M355.081,510.277l-3.026-4.248c-0.34,0.037-0.693,0.057-1.058,0.057l-3.552,0.003l0.004,4.194h-1.398
				l-0.011-13.223l4.95-0.004c1.688-0.002,3.011,0.4,3.968,1.205c0.958,0.806,1.438,1.914,1.438,3.324
				c0.001,1.033-0.261,1.905-0.782,2.617s-1.268,1.226-2.237,1.541l3.234,4.531L355.081,510.277z M353.962,504.025
				c0.691-0.58,1.038-1.393,1.037-2.438c-0.001-1.07-0.349-1.892-1.041-2.464c-0.694-0.572-1.695-0.859-3.005-0.857l-3.514,0.002
				l0.005,6.631l3.514-0.002C352.268,504.894,353.269,504.605,353.962,504.025z"/>
			<path fill="#3C3C3B" d="M374.377,497.038l0.011,13.224l-1.342,0.001l-0.009-10.579l-5.188,8.902h-0.661l-5.202-8.837
				l0.009,10.522l-1.342,0.001l-0.011-13.224l1.152-0.001l5.751,9.8l5.679-9.809L374.377,497.038z"/>
			<path fill="#3C3C3B" d="M387.93,506.718l-7.368,0.006l-1.584,3.533l-1.454,0.002l6.034-13.229l1.379-0.002l6.056,13.219
				l-1.473,0.002L387.93,506.718z M387.418,505.585l-3.18-7.102l-3.168,7.105L387.418,505.585z"/>
			<path fill="#3C3C3B" d="M396.027,498.23l-4.647,0.004l-0.001-1.209l10.692-0.009l0.001,1.209l-4.646,0.003l0.01,12.016h-1.398
				L396.027,498.23z"/>
			<path fill="#3C3C3B" d="M405.244,497.013l1.398-0.001l0.011,13.224l-1.398,0.002L405.244,497.013z"/>
			<path fill="#3C3C3B" d="M414.124,509.464c-1.064-0.584-1.896-1.387-2.495-2.406c-0.6-1.02-0.898-2.165-0.899-3.438
				c-0.002-1.271,0.297-2.418,0.895-3.439c0.597-1.02,1.427-1.823,2.491-2.41c1.063-0.586,2.25-0.88,3.561-0.881
				c1.31-0.001,2.49,0.288,3.543,0.866c1.052,0.579,1.881,1.381,2.486,2.407c0.605,1.025,0.907,2.175,0.909,3.447
				c0.001,1.271-0.301,2.421-0.904,3.447c-0.604,1.027-1.431,1.83-2.482,2.41c-1.051,0.581-2.231,0.871-3.541,0.873
				C416.376,510.341,415.189,510.05,414.124,509.464z M420.518,508.383c0.844-0.473,1.504-1.128,1.983-1.966
				c0.478-0.838,0.716-1.773,0.716-2.807c-0.001-1.032-0.241-1.967-0.721-2.805c-0.479-0.837-1.142-1.491-1.985-1.963
				c-0.845-0.472-1.789-0.707-2.834-0.706c-1.046,0.001-1.993,0.237-2.843,0.71c-0.85,0.474-1.517,1.129-2.001,1.967
				s-0.726,1.773-0.725,2.807c0,1.032,0.243,1.967,0.729,2.805c0.484,0.837,1.153,1.491,2.003,1.963
				c0.852,0.471,1.799,0.707,2.845,0.706C418.73,509.093,419.675,508.857,420.518,508.383z"/>
			<path fill="#3C3C3B" d="M439.74,496.987l0.011,13.224h-1.152l-8.51-10.723l0.009,10.73h-1.398l-0.011-13.223l1.152-0.002
				l8.529,10.725l-0.009-10.73L439.74,496.987z"/>
			<path fill="#3C3C3B" d="M450.721,504.591c-0.277-0.277-0.415-0.623-0.416-1.039c0-0.402,0.138-0.74,0.415-1.011
				c0.276-0.271,0.61-0.407,1-0.407c0.391,0,0.725,0.135,1.003,0.406c0.276,0.27,0.415,0.606,0.415,1.01
				c0.001,0.402-0.138,0.746-0.414,1.029s-0.61,0.426-1.001,0.426C451.333,505.005,450.999,504.869,450.721,504.591z"/>
			<path fill="#3C3C3B" d="M471.976,506.652l-7.368,0.006l-1.584,3.534l-1.454,0.001l6.034-13.229h1.379l6.056,13.219h-1.473
				L471.976,506.652z M471.464,505.519l-3.18-7.1l-3.168,7.105L471.464,505.519z"/>
			<path fill="#3C3C3B" d="M480.186,509.423c-1.052-0.578-1.878-1.381-2.477-2.406c-0.6-1.026-0.898-2.176-0.899-3.447
				c-0.002-1.272,0.297-2.422,0.895-3.449c0.597-1.026,1.424-1.83,2.482-2.41c1.057-0.58,2.24-0.871,3.55-0.872
				c0.982-0.001,1.89,0.163,2.722,0.489c0.831,0.327,1.536,0.805,2.117,1.435l-0.889,0.888c-1.032-1.044-2.337-1.565-3.911-1.564
				c-1.046,0.001-1.996,0.24-2.852,0.721c-0.856,0.479-1.526,1.134-2.011,1.966c-0.484,0.831-0.726,1.764-0.725,2.796
				c0,1.033,0.243,1.965,0.729,2.796c0.484,0.831,1.156,1.485,2.013,1.963c0.857,0.478,1.808,0.717,2.854,0.716
				c1.587-0.001,2.89-0.531,3.909-1.59l0.889,0.887c-0.579,0.631-1.287,1.113-2.125,1.447c-0.836,0.334-1.746,0.502-2.729,0.502
				C482.419,510.291,481.238,510.001,480.186,509.423z"/>
			<path fill="#3C3C3B" d="M494.43,509.412c-1.052-0.578-1.878-1.381-2.477-2.406c-0.6-1.025-0.898-2.175-0.899-3.447
				c-0.002-1.271,0.297-2.422,0.895-3.448c0.597-1.026,1.424-1.83,2.482-2.411c1.057-0.58,2.24-0.87,3.55-0.871
				c0.982-0.001,1.89,0.162,2.722,0.488c0.831,0.328,1.536,0.806,2.117,1.436l-0.889,0.888c-1.032-1.044-2.337-1.565-3.911-1.565
				c-1.046,0.002-1.996,0.242-2.852,0.721c-0.856,0.479-1.526,1.135-2.011,1.967c-0.484,0.831-0.726,1.764-0.725,2.796
				c0,1.032,0.243,1.964,0.729,2.796c0.484,0.83,1.156,1.484,2.013,1.963c0.857,0.479,1.808,0.717,2.854,0.715
				c1.587,0,2.89-0.531,3.909-1.59l0.889,0.888c-0.579,0.63-1.287,1.112-2.125,1.446c-0.836,0.335-1.746,0.502-2.729,0.504
				C496.663,510.279,495.482,509.99,494.43,509.412z"/>
			<path fill="#3C3C3B" d="M508.692,509.391c-1.064-0.585-1.896-1.388-2.495-2.407c-0.6-1.02-0.898-2.164-0.899-3.437
				c-0.002-1.272,0.297-2.419,0.895-3.439c0.597-1.021,1.427-1.823,2.491-2.411c1.063-0.586,2.25-0.879,3.561-0.881
				c1.31,0,2.49,0.289,3.543,0.867c1.052,0.578,1.881,1.381,2.486,2.406s0.907,2.176,0.909,3.447
				c0.001,1.271-0.301,2.422-0.904,3.448s-1.431,1.83-2.482,2.41c-1.051,0.581-2.231,0.871-3.541,0.872
				C510.944,510.268,509.758,509.976,508.692,509.391z M515.086,508.31c0.844-0.473,1.504-1.129,1.983-1.967
				c0.478-0.838,0.716-1.773,0.716-2.806c-0.001-1.032-0.241-1.968-0.721-2.806c-0.479-0.836-1.142-1.49-1.985-1.963
				c-0.845-0.471-1.789-0.707-2.834-0.705c-1.046,0-1.993,0.236-2.843,0.71s-1.517,1.128-2.001,1.966s-0.726,1.773-0.725,2.807
				c0,1.033,0.243,1.967,0.729,2.805c0.484,0.838,1.153,1.492,2.003,1.963c0.852,0.472,1.799,0.707,2.845,0.707
				C513.299,509.019,514.243,508.783,515.086,508.31z"/>
			<path fill="#3C3C3B" d="M536.991,496.911l0.011,13.224l-1.342,0.001l-0.009-10.579l-5.188,8.902h-0.661l-5.202-8.837
				l0.009,10.522l-1.342,0.001l-0.011-13.224l1.152-0.001l5.751,9.8l5.679-9.809L536.991,496.911z"/>
			<path fill="#3C3C3B" d="M551.16,498.109c0.958,0.805,1.438,1.913,1.438,3.323c0.001,1.411-0.477,2.517-1.434,3.317
				c-0.956,0.8-2.278,1.201-3.966,1.202l-3.552,0.003l0.004,4.175l-1.398,0.001l-0.011-13.224l4.95-0.004
				C548.88,496.902,550.203,497.303,551.16,498.109z M550.164,503.862c0.691-0.573,1.038-1.384,1.037-2.429
				c-0.001-1.07-0.349-1.892-1.041-2.465c-0.694-0.572-1.695-0.857-3.005-0.856l-3.514,0.003l0.005,6.611l3.514-0.002
				C548.47,504.722,549.471,504.435,550.164,503.862z"/>
			<path fill="#3C3C3B" d="M564.202,506.581l-7.368,0.005l-1.584,3.535h-1.454l6.034-13.228l1.379-0.001l6.056,13.219l-1.473,0.001
				L564.202,506.581z M563.69,505.448l-3.18-7.101l-3.168,7.105L563.69,505.448z"/>
			<path fill="#3C3C3B" d="M579.521,503.49l1.342-0.002l0.004,5.045c-0.617,0.541-1.348,0.957-2.19,1.248
				c-0.844,0.291-1.732,0.436-2.664,0.437c-1.322,0.001-2.513-0.288-3.571-0.866c-1.058-0.578-1.891-1.381-2.496-2.406
				s-0.907-2.176-0.908-3.447c-0.002-1.271,0.3-2.422,0.903-3.448s1.435-1.831,2.492-2.411c1.057-0.58,2.253-0.871,3.588-0.871
				c1.008-0.002,1.934,0.158,2.778,0.479c0.844,0.321,1.556,0.797,2.136,1.426l-0.869,0.888c-1.045-1.031-2.375-1.547-3.987-1.546
				c-1.07,0.001-2.037,0.238-2.898,0.711c-0.862,0.473-1.539,1.129-2.029,1.967s-0.735,1.773-0.734,2.806
				c0,1.032,0.247,1.964,0.739,2.796c0.49,0.83,1.165,1.484,2.021,1.962c0.857,0.479,1.821,0.717,2.892,0.716
				c1.36,0,2.513-0.342,3.456-1.023L579.521,503.49z"/>
			<path fill="#3C3C3B" d="M596.8,496.865l0.011,13.223l-1.152,0.001l-8.51-10.724l0.009,10.73l-1.398,0.001l-0.011-13.224
				l1.152-0.001l8.529,10.724l-0.009-10.73H596.8z"/>
			<path fill="#3C3C3B" d="M611.412,508.867l0.001,1.209l-9.352,0.008l-0.011-13.224l9.068-0.007l0.001,1.209l-7.67,0.006
				l0.004,4.703l6.839-0.005l0.001,1.19l-6.839,0.006l0.004,4.911L611.412,508.867z"/>
			<path fill="#3C3C3B" d="M629.368,496.839l0.011,13.223l-1.342,0.002l-0.009-10.58l-5.188,8.902h-0.661l-5.202-8.837l0.009,10.522
				l-1.342,0.002l-0.011-13.225h1.152l5.751,9.799l5.679-9.809H629.368z"/>
			<path fill="#3C3C3B" d="M643.98,508.841l0.001,1.209l-9.352,0.008l-0.011-13.224l9.068-0.007l0.001,1.209l-7.67,0.006
				l0.004,4.703l6.839-0.005l0.001,1.19l-6.839,0.006l0.004,4.911L643.98,508.841z"/>
			<path fill="#3C3C3B" d="M659.254,496.816l0.011,13.223l-1.152,0.002l-8.51-10.725l0.009,10.73l-1.398,0.002l-0.011-13.225h1.152
				l8.529,10.723l-0.009-10.73H659.254z"/>
			<path fill="#3C3C3B" d="M667.075,498.018l-4.647,0.004l-0.001-1.209l10.692-0.009l0.001,1.209l-4.646,0.004l0.01,12.015
				l-1.398,0.001L667.075,498.018z"/>
		</g>
	</g>
	<linearGradient id="SVGID_1_" gradientUnits="userSpaceOnUse" x1="510.5537" y1="182.3364" x2="354.6464" y2="338.2438">
		<stop  offset="0" style="stop-color:#DEDC00"/>
		<stop  offset="0.7366" style="stop-color:#95C11F"/>
		<stop  offset="1" style="stop-color:#3AAA35"/>
	</linearGradient>
	<circle fill="url(#SVGID_1_)" cx="432.599" cy="260.289" r="110.243"/>
	<g>
		<defs>
			<circle id="SVGID_2_" cx="432.599" cy="260.289" r="110.243"/>
		</defs>
		<clipPath id="SVGID_3_">
			<use xlink:href="#SVGID_2_"  overflow="visible"/>
		</clipPath>
		<g clip-path="url(#SVGID_3_)">
			<path fill="none" d="M444.891,285.585c-0.566,1.43-0.287,6.582,0.455,7.724c1.15-0.313,2.846-3.189,3.002-3.963
				C448.32,288.738,446.475,286.412,444.891,285.585z"/>
			<path fill="none" d="M389.374,269.392c1.7,0,3.035,0.24,4.083,0.737c0.533,0.251,0.692,0.201,0.692,0.201
				c0.461-0.558-0.354-4.013-0.704-5.49c-0.143-0.606-0.276-1.17-0.371-1.653c-0.084-0.405-0.195-0.405-0.36-0.405
				c-1.31,0-4.292,2.334-6.021,4.711c-0.818,1.12-1.025,1.798-1.047,2.078c0.285,0.005,0.773-0.028,1.318-0.064
				C387.648,269.454,388.5,269.392,389.374,269.392z"/>
			<path fill="none" d="M445.578,278.875l-0.126-0.05c-2.616-1.014-5.864-2.273-7.791-2.273c-0.329,0-0.904,0.045-1.069,0.318
				c-0.12,0.204-0.394,1.075,1.137,3.957c2.021,3.803,1.856,8.414,1.712,12.479c-0.123,3.451-0.235,6.716,1.17,8.179
				c0.64,0.665,1.563,0.991,2.943,1c5.013-0.022,10.849-11.203,11.089-13.113C454.972,286.739,451.054,280.989,445.578,278.875z
				 M450.211,289.598c-0.104,0.846-2.329,5.621-5.063,5.621c-2.257,0-2.433-5.228-2.433-6.83c0-0.813,0.048-1.98,0.282-2.929
				c0.374-1.556,1.137-1.882,1.709-1.882c0.176,0,0.352,0.034,0.527,0.101C447.388,284.507,450.432,287.828,450.211,289.598z"/>
			<path fill="none" d="M432.316,315.199c-0.598-0.642-1.771-1.558-2.924-1.558c-0.189,0-0.377,0.028-0.55,0.075
				c-0.93,1.82-1.698,3.711-1.924,4.691C428.589,317.822,431.56,316.068,432.316,315.199z"/>
			<path fill="none" d="M400.334,290.011c-1.957-8.799-6.45-11.416-9.877-12.061c-0.65-0.125-1.32-0.184-1.984-0.184
				c-9.174,0-19.064,11.938-31.095,29.868c-7.634,11.377-20.837,24.487-33.118,28.126c-1.525,0.455-2.784,1.472-3.544,2.87
				c-0.759,1.399-0.927,3.011-0.475,4.535c0.743,2.514,3.091,4.268,5.708,4.268c0.572,0,1.142-0.081,1.695-0.246
				c13.507-4.002,28.692-16.615,39.63-32.914l0.156-0.235c6.77-10.089,13.726-19.941,17.847-19.941c0.676,0,1.279,0.251,1.754,0.723
				c4.535,4.535-0.02,19.299-7.118,30.242c-6.615,10.198-19.472,24.277-43.149,33.432c-1.482,0.572-2.658,1.692-3.3,3.145
				c-0.643,1.457-0.682,3.077-0.106,4.561c0.88,2.277,3.113,3.811,5.557,3.811c0.732,0,1.455-0.137,2.147-0.401
				c26.654-10.302,41.275-26.386,48.849-38.064C399.075,317.414,402.974,301.885,400.334,290.011z M339.252,364.927
				c-0.111,0.045-0.229,0.064-0.34,0.064c-0.377,0-0.732-0.229-0.877-0.604c-0.185-0.482,0.053-1.027,0.539-1.215
				c42.632-16.48,59.348-52.21,55.025-71.668c-0.916-4.116-2.402-6.397-4.418-6.777c-7.222-1.346-21.41,19.799-26.076,26.749
				c-10.159,15.141-24.641,27.271-36.886,30.898c-0.497,0.147-1.024-0.137-1.17-0.637c-0.146-0.494,0.137-1.019,0.637-1.167
				c11.852-3.51,25.928-15.345,35.858-30.143c13.521-20.152,22.158-28.645,27.985-27.55c2.826,0.534,4.812,3.298,5.906,8.221
				C399.907,311.217,382.871,348.067,339.252,364.927z"/>
			<path fill="none" d="M463.059,292.042c0.276-2.181-1.813-6.274-5.314-10.413c-3.764-4.445-8.307-7.989-12.144-9.469
				c-3.519-1.36-7.456-2.175-10.525-2.175c-2.061,0-4.735,0.363-5.777,2.094c-0.93,1.547-0.478,4.139,1.307,7.495
				c3.072,5.786,2.896,12.142,2.739,17.754c-0.134,4.753-0.245,9.184,1.79,11.279c1.123,1.16,2.924,0.063,5.501,2.063h0.07
				c7.875,0,10.877-4.172,15.029-9.491l0.729-1.092c2.089-2.661,3.6-4.05,4.697-5C462.441,293.984,462.871,293.547,463.059,292.042z
				 M456.566,288.756c-0.296,2.371-6.568,13.914-12.912,13.914h-0.015c-1.935,0-3.367,0.329-4.387-0.73
				c-1.958-2.036-1.835-5.092-1.692-9.125c0.137-3.831,0.291-7.959-1.494-11.315c-1.466-2.762-1.812-4.5-1.086-5.7
				c0.488-0.818,1.394-1.18,2.681-1.18c2.282,0,5.577,1.298,8.483,2.421l0.14-0.436
				C451.881,278.765,457.068,284.729,456.566,288.756z"/>
			<path fill="none" d="M538.701,317.082c-29.315-7.132-40.871-18.097-55.696-39.325c-14.395-20.623-26.662-32.087-50.205-32.087
				h-0.52c-0.279,0-0.623,0.281-1.024,0.281c-8.761,0-24.23,1.813-29.469,13c-2.416,5.152,0.681,11.598,3.674,17.758
				c1.416,2.91,2.877,5.952,3.712,8.775c2.681,9.067,1.79,16.231,0.757,24.505c-1.204,9.623-8.76,24.555-18.805,37.141
				c-12.373,15.5-32.356,27.593-41.194,31.818c-2.963,1.415-4.22,4.984-2.804,7.95c0.983,2.058,3.094,3.389,5.379,3.389
				c0.891,0,1.753-0.198,2.563-0.587c10.464-5,33.602-18.412,46.297-33.366c10.912-12.851,18.176-33.903,20.398-44.919
				c4.158-20.617-0.179-29.894-3.049-36.035c-1.302-2.784-2.329-4.981-1.919-7.238c0.991-5.454,5.72-8.221,14.046-8.221
				c1.302,0,2.48,0.067,3.338,0.115c0.516,0.028,0.935,0.05,1.22,0.05c15.693,0,26.886,11.43,38.865,28.589
				c16.504,23.635,29.745,32.23,61.621,39.982c0.467,0.115,0.944,0.171,1.413,0.171c2.754,0,5.133-1.871,5.783-4.552
				c0.377-1.545,0.131-3.145-0.698-4.504C541.555,318.411,540.248,317.456,538.701,317.082z M538.207,323.093
				c-0.123,0.503-0.632,0.813-1.137,0.69c-32.23-7.841-43.688-18.07-58.661-39.516c-15.442-22.119-30.479-30.466-51.912-28.818
				c-7.19,0.553-11.924,2.692-14.074,6.35c-3.396,5.786-0.022,14.61,2.81,20.748c4.328,9.38,3.337,16.023,2.189,23.714
				c-0.221,1.477-0.447,2.998-0.648,4.599c-1.271,10.159-11.538,29.327-19.96,40.178c-11.46,14.767-34.253,29.52-43.909,34.138
				c-0.128,0.064-0.268,0.092-0.402,0.092c-0.352,0-0.689-0.197-0.852-0.535c-0.223-0.469-0.024-1.027,0.444-1.254
				c9.218-4.41,32.103-19.254,43.233-33.591c8.271-10.661,18.346-29.404,19.58-39.262c0.201-1.62,0.43-3.155,0.65-4.642
				c1.15-7.698,2.062-13.777-2.035-22.646c-3.011-6.521-6.565-15.945-2.723-22.493c2.479-4.219,7.71-6.668,15.554-7.271
				c21.904-1.684,37.927,7.171,53.596,29.617c14.686,21.036,25.931,31.069,57.566,38.765
				C538.02,322.078,538.329,322.588,538.207,323.093z"/>
			<path fill="#43424C" d="M325.273,208.1c0.17,0.137,0.38,0.204,0.584,0.204c0.275,0,0.55-0.123,0.736-0.354
				c17.523-21.994,54.144-48.586,99.688-51.15c18.106-1.016,36.003,1.921,53.199,8.732c19.356,7.673,37.924,20.32,55.19,37.595
				c0.365,0.366,0.96,0.366,1.328,0c0.369-0.369,0.369-0.966,0-1.332c-17.447-17.456-36.229-30.245-55.826-38.008
				c-17.45-6.917-35.612-9.896-53.995-8.863c-46.168,2.597-83.29,29.556-101.06,51.854
				C324.799,207.185,324.865,207.776,325.273,208.1z"/>
			<path fill="#43424C" d="M323.19,219.223c0.17,0.134,0.377,0.198,0.577,0.198c0.279,0,0.559-0.125,0.743-0.363
				c17.978-23.122,55.531-51.094,102.19-53.833c18.491-1.086,36.787,1.943,54.366,9.002c19.765,7.939,38.731,21.033,56.371,38.927
				c0.366,0.371,0.964,0.377,1.332,0.008c0.368-0.363,0.374-0.958,0.006-1.329c-17.819-18.079-37.003-31.317-57.009-39.354
				c-17.838-7.163-36.407-10.231-55.176-9.134c-47.284,2.778-85.343,31.125-103.566,54.556
				C322.707,218.313,322.779,218.904,323.19,219.223z"/>
			<path fill="#43424C" d="M321.109,230.345c0.171,0.131,0.372,0.192,0.57,0.192c0.281,0,0.563-0.128,0.748-0.371
				c18.455-24.255,56.955-53.615,104.726-56.52c18.877-1.148,37.559,1.974,55.52,9.282c20.164,8.201,39.524,21.748,57.533,40.256
				c0.366,0.372,0.96,0.38,1.332,0.017c0.374-0.36,0.38-0.958,0.017-1.329c-18.193-18.695-37.768-32.384-58.172-40.689
				c-18.225-7.414-37.186-10.581-56.342-9.416c-21.258,1.293-42.947,8.067-62.721,19.589c-17.064,9.944-32.474,23.322-43.39,37.67
				C320.615,229.443,320.696,230.032,321.109,230.345z"/>
			<path fill="#43424C" d="M319.029,241.47c0.168,0.125,0.366,0.184,0.559,0.184c0.29,0,0.569-0.131,0.757-0.377
				c11.1-14.889,26.737-28.754,44.025-39.03c19.946-11.862,41.823-18.838,63.267-20.181c19.262-1.207,38.32,2.013,56.658,9.569
				c20.562,8.47,40.304,22.46,58.684,41.577c0.357,0.377,0.955,0.388,1.33,0.028c0.374-0.363,0.385-0.955,0.024-1.332
				c-18.559-19.304-38.517-33.442-59.323-42.013c-18.6-7.665-37.94-10.932-57.49-9.707c-21.736,1.36-43.909,8.428-64.109,20.441
				c-17.498,10.402-33.328,24.439-44.573,39.522C318.523,240.571,318.61,241.16,319.029,241.47z"/>
			<path fill="#43424C" d="M318.242,258.211c13.956-18.799,30.586-34.825,48.086-46.341c20.075-13.22,41.01-20.536,62.216-21.748
				c39.44-2.259,78.13,16.52,114.963,55.818c0.357,0.377,0.952,0.396,1.329,0.039c0.38-0.352,0.399-0.949,0.042-1.326
				c-37.229-39.723-76.404-58.703-116.442-56.411c-21.541,1.234-42.787,8.651-63.144,22.055
				c-17.679,11.636-34.473,27.818-48.561,46.788c-0.311,0.419-0.221,1.008,0.192,1.315c0.17,0.125,0.365,0.187,0.562,0.187
				C317.772,258.588,318.058,258.457,318.242,258.211z"/>
			<path fill="#43424C" d="M318.664,269.87c14.576-16.638,30.513-33.884,48.262-47.282c21.072-15.906,41.376-23.666,63.895-24.423
				c19.982-0.656,38.971,5.085,59.744,18.084c13.639,8.534,28.391,19.586,46.344,33.554c0.896,0.701,1.804,1.374,2.7,2.039
				c2.178,1.614,4.239,3.139,5.725,4.728c0.357,0.38,0.952,0.396,1.332,0.045c0.38-0.355,0.399-0.952,0.044-1.332
				c-1.603-1.709-3.73-3.284-5.98-4.954c-0.883-0.653-1.782-1.321-2.667-2.008c-17.997-14.004-32.792-25.087-46.5-33.666
				c-21.105-13.208-40.433-19.047-60.804-18.372c-22.926,0.771-43.567,8.651-64.966,24.805
				c-17.883,13.499-33.9,30.826-48.544,47.542c-0.341,0.391-0.302,0.986,0.086,1.327c0.179,0.159,0.402,0.232,0.623,0.232
				C318.217,270.188,318.479,270.082,318.664,269.87z"/>
			<path fill="#43424C" d="M319.074,281.534c5.277-4.993,10.972-10.975,17.003-17.313c9.567-10.047,20.404-21.435,31.882-31.2
				c15.068-12.823,34.426-26.025,63.752-26.743c25.048-0.583,43.034,10.167,58.753,21.879l2.569,1.918
				c13.442,10.025,28.678,21.387,45.048,31.538c1.31,0.813,2.622,1.527,3.896,2.226c2.142,1.167,4.169,2.273,5.188,3.359
				c0.354,0.379,0.952,0.402,1.332,0.044c0.377-0.357,0.396-0.952,0.039-1.332c-1.224-1.304-3.278-2.427-5.657-3.725
				c-1.252-0.684-2.545-1.388-3.807-2.17c-16.303-10.111-31.502-21.449-44.911-31.448l-2.571-1.918
				c-15.99-11.913-34.301-22.868-59.924-22.25c-29.913,0.729-49.608,14.152-64.925,27.19c-11.552,9.83-22.429,21.256-32.024,31.337
				c-6.015,6.316-11.694,12.284-16.936,17.243c-0.38,0.354-0.396,0.952-0.039,1.329c0.188,0.196,0.436,0.296,0.684,0.296
				C318.658,281.793,318.89,281.707,319.074,281.534z"/>
			<path fill="#43424C" d="M318.898,293.393c0.198,0,0.398-0.062,0.566-0.192c8.229-6.25,17.425-16.152,27.16-26.64
				c7.159-7.71,14.563-15.683,22.364-23.113c15.146-14.417,32.538-28.539,63.615-29.059c26.042-0.413,42.169,11.907,57.765,25.668
				c8.902,7.858,27.087,22.636,48.882,33.351c1.748,0.86,3.546,1.566,5.133,2.187c2.05,0.807,3.984,1.566,4.607,2.231
				c0.357,0.382,0.952,0.399,1.332,0.044c0.377-0.354,0.396-0.949,0.042-1.329c-0.916-0.977-2.849-1.734-5.295-2.697
				c-1.556-0.606-3.309-1.296-4.99-2.123c-21.597-10.623-39.639-25.28-48.469-33.071c-15.621-13.789-31.806-26.149-57.729-26.149
				c-0.436,0-0.874,0.003-1.313,0.009c-31.75,0.528-50.139,15.542-64.877,29.578c-7.847,7.467-15.27,15.462-22.448,23.194
				c-9.679,10.424-18.821,20.271-26.919,26.422c-0.411,0.315-0.492,0.905-0.177,1.318
				C318.331,293.265,318.613,293.393,318.898,293.393z"/>
			<path fill="#43424C" d="M541.097,283.435c-17.866-6.861-36.357-19.114-49.463-32.78c-13.618-14.206-29.069-30.295-58.158-30.033
				c-32.334,0.321-48.488,14.666-64.827,31.965c-5.588,5.917-11.03,12.114-16.297,18.104
				c-12.094,13.767-23.521,26.766-33.456,32.552c-0.45,0.26-0.601,0.838-0.341,1.285c0.173,0.301,0.488,0.469,0.813,0.469
				c0.162,0,0.324-0.041,0.475-0.129c10.204-5.939,21.723-19.049,33.923-32.934c5.255-5.979,10.687-12.161,16.252-18.056
				c16.037-16.978,31.882-31.061,63.476-31.373c28.299-0.276,43.426,15.523,56.785,29.452c13.286,13.856,32.029,26.28,50.144,33.238
				c2.31,0.888,4.7,1.525,6.618,2.039c1.539,0.405,3.449,0.916,3.783,1.223c0.358,0.38,0.95,0.396,1.332,0.044
				c0.375-0.357,0.397-0.952,0.039-1.332c-0.611-0.651-1.945-1.031-4.668-1.757C545.648,284.913,543.314,284.29,541.097,283.435z"/>
			<path fill="#43424C" d="M542.11,295.172c-19.48-5.68-38.81-18.126-50.46-32.49l-1.382-1.764
				c-12.206-15.104-26.028-32.249-55.601-32.249c-0.098,0-0.195,0-0.288,0c-35.595,0-50.429,17.566-64.773,34.382
				c-3.89,4.565-7.761,9.283-11.505,13.84c-13.999,17.053-27.219,33.177-38.623,37.88c-0.48,0.195-0.709,0.754-0.511,1.231
				c0.151,0.366,0.503,0.59,0.871,0.59c0.118,0,0.237-0.012,0.357-0.06c11.841-4.882,25.205-21.161,39.36-38.399
				c3.738-4.552,7.601-9.251,11.482-13.803c14.068-16.495,28.617-33.662,63.347-33.662c0.098,0,0.192,0,0.29,0
				c28.659,0,41.607,15.994,54.127,31.492l1.388,1.684c11.873,14.649,31.568,27.34,51.392,33.124
				c3.156,0.916,6.334,1.414,8.654,1.773c1.045,0.162,2.223,0.35,2.553,0.465c0.359,0.26,0.859,0.234,1.192-0.079
				c0.38-0.354,0.396-0.948,0.044-1.325c-0.394-0.416-0.996-0.523-3.498-0.914C548.254,296.532,545.146,296.057,542.11,295.172z"/>
			<path fill="#43424C" d="M555.168,308.137c-0.064,0-6.247-0.009-12.035-1.226c-20.913-4.404-41.113-17.037-51.465-32.208
				c-0.752-1.095-1.497-1.821-2.254-2.943c-10.865-16.157-23.181-34.09-54.132-34.09c-0.042,0-0.078,0-0.123,0
				c-36.24,0-50.119,17.57-63.534,34.961l-1.055,1.135c-2.424,3.133-4.868,6.261-7.233,9.37
				c-15.696,20.631-30.521,40.071-43.258,43.257c-0.503,0.125-0.81,0.61-0.681,1.116c0.103,0.43,0.488,0.7,0.91,0.7
				c0.072,0,0.15-0.008,0.226-0.027c13.379-3.343,28.399-23.079,44.3-43.981c2.362-3.105,4.806-6.301,7.225-9.432l1.058-0.43
				c13.742-17.813,26.722-33.669,62.04-33.669c0.042,0,0.081,0,0.123,0c29.952,0,41.971,16.933,52.574,32.699
				c0.759,1.128,1.508,1.731,2.253,2.829c10.617,15.548,31.278,28.273,52.638,32.769c5.984,1.263,12.161,1.163,12.424,1.163
				c0.52,0,0.938-0.479,0.938-0.999S555.688,308.137,555.168,308.137z"/>
			<path fill="#43424C" d="M395.437,291.101c-1.095-4.923-3.08-7.688-5.906-8.221c-5.827-1.095-14.465,7.397-27.985,27.55
				c-9.931,14.798-24.007,26.633-35.858,30.143c-0.5,0.148-0.782,0.673-0.637,1.167c0.146,0.5,0.673,0.784,1.17,0.637
				c12.245-3.628,26.727-15.758,36.886-30.898c4.666-6.95,18.854-28.095,26.076-26.749c2.016,0.38,3.502,2.661,4.418,6.777
				c4.322,19.458-12.394,55.188-55.025,71.668c-0.486,0.188-0.724,0.732-0.539,1.215c0.145,0.375,0.5,0.604,0.877,0.604
				c0.111,0,0.229-0.02,0.34-0.064C382.871,348.067,399.907,311.217,395.437,291.101z"/>
			<path fill="#43424C" d="M391.49,332.572c9.434-14.549,13.427-30.611,10.679-42.968c-2.178-9.802-7.383-12.753-11.362-13.502
				c-0.768-0.148-1.553-0.22-2.334-0.22c-10.039,0-19.936,11.748-32.655,30.703c-7.45,11.101-20.26,23.867-32.091,27.372
				c-2.011,0.595-3.664,1.938-4.664,3.775c-0.999,1.84-1.223,3.963-0.625,5.967c0.978,3.307,4.068,5.616,7.512,5.616
				c0.751,0,1.502-0.108,2.23-0.324c13.907-4.122,29.486-17.022,40.656-33.669l0.156-0.236c3.507-5.229,12.82-19.109,16.285-19.109
				c0.179,0,0.302,0.053,0.422,0.173c2.717,2.717,1.229,14.641-7.363,27.888c-6.465,9.966-19.039,23.73-42.25,32.7
				c-1.952,0.756-3.494,2.225-4.343,4.141s-0.896,4.047-0.142,5.998c1.161,3.002,4.099,5.016,7.313,5.016
				c0.967,0,1.916-0.179,2.826-0.531C368.863,360.878,383.764,344.478,391.49,332.572z M341.062,369.608
				c-0.692,0.265-1.415,0.401-2.147,0.401c-2.443,0-4.677-1.533-5.557-3.811c-0.575-1.483-0.536-3.104,0.106-4.561
				c0.642-1.452,1.817-2.572,3.3-3.145c23.678-9.154,36.534-23.233,43.149-33.432c7.099-10.943,11.653-25.707,7.118-30.242
				c-0.475-0.472-1.078-0.723-1.754-0.723c-4.121,0-11.077,9.852-17.847,19.941l-0.156,0.235
				c-10.938,16.299-26.123,28.912-39.63,32.914c-0.554,0.165-1.123,0.246-1.695,0.246c-2.617,0-4.965-1.754-5.708-4.268
				c-0.452-1.524-0.284-3.136,0.475-4.535c0.76-1.398,2.019-2.415,3.544-2.87c12.281-3.639,25.484-16.749,33.118-28.126
				c12.03-17.93,21.921-29.868,31.095-29.868c0.664,0,1.334,0.059,1.984,0.184c3.427,0.645,7.92,3.262,9.877,12.061
				c2.64,11.874-1.259,27.402-10.424,41.532C382.337,343.222,367.716,359.306,341.062,369.608z"/>
			<path fill="#43424C" d="M379.308,310.86c0.179-0.489-0.075-1.027-0.564-1.209c-0.485-0.176-1.027,0.073-1.206,0.562
				c-0.106,0.293-11.162,29.432-49.605,43.336c-0.488,0.179-0.74,0.721-0.564,1.206c0.137,0.383,0.5,0.62,0.883,0.62
				c0.109,0,0.215-0.017,0.324-0.056C367.83,341.119,379.195,311.162,379.308,310.86z"/>
			<path fill="#43424C" d="M537.517,321.955c-31.636-7.696-42.881-17.729-57.566-38.765c-15.669-22.446-31.691-31.301-53.596-29.617
				c-7.844,0.603-13.074,3.052-15.554,7.271c-3.843,6.548-0.288,15.973,2.723,22.493c4.097,8.869,3.186,14.948,2.035,22.646
				c-0.221,1.486-0.449,3.021-0.65,4.642c-1.234,9.857-11.31,28.601-19.58,39.262c-11.131,14.337-34.016,29.181-43.233,33.591
				c-0.469,0.227-0.667,0.785-0.444,1.254c0.162,0.338,0.5,0.535,0.852,0.535c0.135,0,0.274-0.027,0.402-0.092
				c9.656-4.618,32.449-19.371,43.909-34.138c8.422-10.851,18.689-30.019,19.96-40.178c0.201-1.601,0.428-3.122,0.648-4.599
				c1.147-7.691,2.139-14.334-2.189-23.714c-2.832-6.138-6.205-14.962-2.81-20.748c2.15-3.658,6.884-5.797,14.074-6.35
				c21.433-1.647,36.47,6.699,51.912,28.818c14.973,21.446,26.431,31.675,58.661,39.516c0.505,0.122,1.014-0.188,1.137-0.69
				C538.329,322.588,538.02,322.078,537.517,321.955z"/>
			<path fill="#43424C" d="M539.145,315.252c-28.723-6.989-40.055-17.304-54.592-38.133c-14.418-20.647-27.506-32.45-51.787-32.45
				h-0.469c-0.282,0-0.634-0.163-1.041-0.163c-9.207,0-25.496,1.736-31.176,13.864c-2.792,5.968,0.503,12.711,3.689,19.271
				c1.443,2.974,2.809,5.758,3.6,8.433c2.445,8.271,1.856,14.392,0.692,23.707c-1.165,9.311-8.562,23.847-18.411,36.189
				c-12.158,15.232-31.828,27.124-40.532,31.288c-3.898,1.865-5.554,6.552-3.688,10.453c1.295,2.708,4.074,4.458,7.076,4.458
				c1.175,0,2.312-0.258,3.375-0.772c10.59-5.06,34.016-18.65,46.92-33.847c12.01-14.146,18.862-36.118,20.807-45.764
				c4.28-21.225-0.395-31.228-3.189-37.204c-1.203-2.577-2.075-4.44-1.773-6.104c0.818-4.493,4.806-6.677,12.197-6.677
				c1.252,0,2.352,0.061,3.234,0.109c0.559,0.033,1.011,0.056,1.323,0.056c14.878,0,25.683,11.105,37.324,27.785
				c16.821,24.093,30.301,32.847,62.718,40.734c0.612,0.147,1.237,0.223,1.857,0.223c3.625,0,6.752-2.463,7.609-5.986
				c0.497-2.033,0.171-4.142-0.916-5.929C542.9,317.003,541.181,315.747,539.145,315.252z M543.082,324.275
				c-0.65,2.681-3.029,4.552-5.783,4.552c-0.469,0-0.946-0.056-1.413-0.171c-31.876-7.752-45.117-16.347-61.621-39.982
				c-11.979-17.16-23.172-28.589-38.865-28.589c-0.285,0-0.704-0.022-1.22-0.05c-0.857-0.048-2.036-0.115-3.338-0.115
				c-8.326,0-13.055,2.767-14.046,8.221c-0.41,2.256,0.617,4.454,1.919,7.238c2.87,6.141,7.207,15.417,3.049,36.035
				c-2.223,11.016-9.486,32.068-20.398,44.919c-12.695,14.954-35.833,28.366-46.297,33.37c-0.81,0.388-1.672,0.583-2.563,0.583
				c-2.285,0-4.396-1.329-5.379-3.388c-1.416-2.965-0.159-6.528,2.804-7.947c8.838-4.225,28.821-16.313,41.194-31.814
				c10.045-12.585,17.601-27.508,18.805-37.131c1.033-8.274,1.924-15.417-0.757-24.484c-0.835-2.823-2.296-5.831-3.712-8.74
				c-2.993-6.16-6.09-12.538-3.674-17.69c5.238-11.184,20.708-13.14,29.469-13.14c0.401,0,0.745-0.281,1.024-0.281h0.52
				c23.543,0,35.811,11.464,50.205,32.087c14.825,21.228,26.381,32.052,55.696,39.179c1.547,0.377,2.854,1.401,3.683,2.762
				C543.213,321.057,543.459,322.73,543.082,324.275z"/>
			<path fill="#43424C" d="M514.063,386.541c-13.208-2.646-32.023-16.952-44.26-42.959c-5.591-11.879-16.104-25.617-27.476-25.617
				c-0.125,0-0.254,0.002-0.38,0.006c-7.938,0.217-14.68,7.02-20.035,20.223c-4.181,10.301-12.882,31.742-50.949,52.121
				c-1.552,0.829-2.89,1.547-4.007,2.189c-0.449,0.256-0.603,0.834-0.343,1.281c0.173,0.302,0.491,0.473,0.814,0.473
				c0.16,0,0.321-0.039,0.47-0.127c1.086-0.625,2.415-1.337,3.951-2.16c12.552-6.717,38.67-20.287,51.803-52.662
				c5.052-12.445,11.226-18.639,18.344-18.639c0.114,0,0.229,0,0.341,0c10.482,0,20.41,12.75,25.76,24.125
				c12.521,26.6,31.924,41.061,45.599,43.797c0.509,0.101,1.005-0.335,1.108-0.844C514.903,387.239,514.574,386.642,514.063,386.541
				z"/>
			<path fill="#43424C" d="M504.535,391.998c-24.071-7.221-32.845-25.441-40.588-41.521c-2.818-5.853-5.479-11.379-8.671-15.822
				c-3.982-5.548-8.104-8.105-12.239-7.598c-7.495,0.91-12.34,11.637-13.645,14.903c-3.077,7.693-9.521,17.237-19.153,28.374
				c-9,10.41-24.803,21.603-35.604,28.025c-0.447,0.266-0.593,0.844-0.327,1.29c0.176,0.299,0.489,0.461,0.808,0.461
				c0.164,0,0.332-0.042,0.479-0.128c10.925-6.498,26.923-17.839,36.068-28.416c9.768-11.297,16.321-21.022,19.475-28.905
				c2.493-6.233,6.986-13.11,12.124-13.736c3.404-0.419,6.937,1.882,10.486,6.825c3.094,4.314,5.722,9.765,8.503,15.543
				c7.52,15.615,16.877,35.048,41.741,42.506c0.497,0.148,1.022-0.131,1.173-0.628C505.314,392.67,505.035,392.146,504.535,391.998z
				"/>
			<path fill="#43424C" d="M498.414,398.748c-0.838-0.42-1.717-0.85-2.637-1.297c-11.803-5.752-29.636-14.439-38.828-42.015
				c-3.852-11.544-6.513-18.573-12.695-17.824c-4.152,0.511-7.257,7.015-10.854,14.549c-1.408,2.954-2.868,6.003-4.446,8.815
				c-12.181,21.647-29.265,32.041-38.44,37.626c-2.105,1.281-3.77,2.29-4.924,3.161c-0.416,0.313-0.496,0.901-0.184,1.318
				c0.184,0.245,0.466,0.371,0.751,0.371c0.195,0,0.396-0.059,0.563-0.19c1.081-0.81,2.709-1.801,4.773-3.055
				c9.32-5.671,26.679-16.232,39.1-38.31c1.608-2.865,3.083-5.945,4.507-8.925c3.214-6.744,6.258-13.11,9.38-13.493
				c3.496-0.428,5.761,1.775,10.682,16.551c9.446,28.324,27.706,37.224,39.792,43.113c0.91,0.443,1.787,0.868,2.619,1.287
				c0.467,0.229,1.028,0.041,1.263-0.425C499.067,399.542,498.881,398.979,498.414,398.748z"/>
			<path fill="#43424C" d="M385.722,271.456c0.38,0,0.843-0.036,1.38-0.075c0.687-0.05,1.469-0.109,2.272-0.109
				c1.413,0,2.488,0.184,3.278,0.558c0.547,0.263,1.027,0.386,1.463,0.386c0.59,0,1.115-0.246,1.464-0.687
				c0.985-1.246,0.497-3.736-0.302-7.118c-0.137-0.583-0.268-1.128-0.36-1.594c-0.243-1.198-1.063-1.913-2.203-1.913
				c-3.002,0-7.855,4.999-8.757,7.682c-0.506,1.5,0.111,2.25,0.524,2.563C384.831,271.417,385.286,271.456,385.722,271.456z
				 M386.693,267.493c1.729-2.376,4.711-4.711,6.021-4.711c0.165,0,0.276,0,0.36,0.405c0.095,0.483,0.229,1.047,0.371,1.653
				c0.35,1.477,1.165,4.932,0.704,5.49c0,0-0.159,0.05-0.692-0.201c-1.048-0.497-2.383-0.737-4.083-0.737
				c-0.874,0-1.726,0.062-2.409,0.114c-0.545,0.037-1.033,0.07-1.318,0.064C385.668,269.292,385.875,268.613,386.693,267.493z"/>
			<path fill="#43424C" d="M483.114,401.651c-20.385-8.916-28.436-28.452-32.72-42.372c-1.002-3.26-2.37-4.921-4.183-5.082
				c-4.119-0.381-8.456,7.396-14.582,19.289l-0.844,1.631c-6.322,12.234-22.155,22.371-30.658,27.822
				c-0.721,0.457-1.396,0.893-2.019,1.293c-0.436,0.281-0.559,0.865-0.277,1.301c0.18,0.279,0.483,0.43,0.791,0.43
				c0.176,0,0.352-0.047,0.508-0.15c0.623-0.402,1.296-0.832,2.014-1.293c8.653-5.543,24.758-15.855,31.314-28.539l0.841-1.633
				c3.984-7.732,9.419-18.283,12.622-18.283c0.041,0,0.083,0,0.125,0.006c0.922,0.084,1.826,1.418,2.55,3.762
				c4.39,14.271,12.667,34.316,33.761,43.543c0.478,0.212,1.03-0.009,1.237-0.483C483.807,402.414,483.586,401.861,483.114,401.651z
				"/>
			<path fill="#43424C" d="M518.721,378.608c-6.66-1.771-26.925-7.18-50.825-54.282c-5.896-11.617-4.145-16.878-2.577-18.983
				c1.463-1.955,3.73-2.533,5.33-2.243c1.643,0.299,3.639,2.776,6.166,5.912c3.672,4.561,8.698,10.799,16.905,16.109
				c9.813,6.351,20.982,8.771,29.96,10.715c4.239,0.916,7.903,1.712,10.782,2.76c0.488,0.178,1.03-0.076,1.206-0.564
				c0.179-0.486-0.075-1.027-0.561-1.207c-3.002-1.088-6.722-1.896-11.027-2.828c-8.828-1.91-19.813-4.292-29.338-10.455
				c-7.95-5.144-12.871-11.251-16.462-15.707c-2.882-3.578-4.965-6.161-7.294-6.585c-2.016-0.366-5.102,0.189-7.174,2.968
				c-2.234,3-3.63,9.064,2.404,20.96c10.419,20.541,27.156,48.619,52.021,55.248c0.08,0.025,0.164,0.033,0.239,0.033
				c0.419,0,0.799-0.278,0.911-0.697C519.522,379.258,519.224,378.742,518.721,378.608z"/>
			<path fill="#43424C" d="M440.633,312.208c-0.081-0.017-0.154-0.03-0.232-0.045v0.045H440.633z"/>
			<path fill="#43424C" d="M462.389,296.431c1.359-1.173,2.262-1.949,2.538-4.175c0.734-5.881-10.072-18.544-18.65-21.854
				c-3.726-1.438-7.911-2.292-11.201-2.292c-3.652,0-6.204,1.05-7.389,3.019c-1.307,2.172-0.885,5.336,1.257,9.366
				c2.837,5.345,2.67,11.48,2.521,16.861c-0.143,5.177-0.212,9.724,2.373,12.39c1.458,1.502,3.674,1.82,6.674,2.418v-0.114
				c8,0,12.293-4.437,16.607-9.96l0.85-1.005C459.945,298.562,461.35,297.333,462.389,296.431z M456.463,299.997l-0.729,1.182
				c-4.152,5.319-7.154,9.491-15.029,9.491h-0.07c-2.577-2-4.378-0.902-5.501-2.063c-2.035-2.096-1.924-6.439-1.79-11.189
				c0.156-5.61,0.333-12.018-2.739-17.801c-1.784-3.356-2.236-5.971-1.307-7.521c1.042-1.729,3.717-2.1,5.777-2.1
				c3.069,0,7.007,0.808,10.525,2.165c3.837,1.48,8.38,5.026,12.144,9.471c3.502,4.139,5.591,8.232,5.314,10.41
				c-0.188,1.505-0.617,1.898-1.898,3.004C460.063,295.995,458.552,297.336,456.463,299.997z"/>
			<path fill="#43424C" d="M446.284,277.125l-0.14-0.05c-2.906-1.125-6.201-2.391-8.483-2.391c-1.287,0-2.192,0.422-2.681,1.24
				c-0.726,1.204-0.38,3.069,1.086,5.825c1.785,3.359,1.631,7.738,1.494,11.566c-0.143,4.035-0.266,6.588,1.692,8.625
				c1.02,1.059,2.452,0.73,4.387,0.73h0.015c6.344,0,12.616-11.542,12.912-13.914C457.068,284.729,451.881,279.283,446.284,277.125z
				 M454.643,289.372c-0.24,1.91-6.076,13.091-11.089,13.113c-1.38-0.008-2.304-0.335-2.943-1c-1.405-1.463-1.293-4.728-1.17-8.179
				c0.145-4.066,0.31-8.676-1.712-12.479c-1.53-2.882-1.257-3.753-1.137-3.957c0.165-0.273,0.74-0.318,1.069-0.318
				c1.927,0,5.175,1.259,7.791,2.273l0.126,0.05C451.054,280.989,454.972,286.739,454.643,289.372z"/>
			<path fill="#43424C" d="M445.234,283.678c-0.176-0.067-0.352-0.101-0.527-0.101c-0.572,0-1.335,0.327-1.709,1.882
				c-0.234,0.949-0.282,2.117-0.282,2.929c0,1.603,0.176,6.83,2.433,6.83c2.733,0,4.959-4.775,5.063-5.621
				C450.432,287.828,447.388,284.507,445.234,283.678z M445.346,293.31c-0.742-1.142-1.021-6.294-0.455-7.724
				c1.584,0.827,3.43,3.153,3.457,3.761C448.191,290.121,446.496,292.997,445.346,293.31z"/>
			<path fill="#43424C" d="M425.198,319.718c0.24,0.398,0.653,0.516,1.134,0.516l0,0c0.09,0,0.185,0.104,0.282,0.087
				c1.782-0.308,6.917-2.982,7.601-4.7c0.185-0.466,0.132-0.916-0.142-1.281c-0.676-0.902-2.524-2.592-4.681-2.592
				c-0.563,0-1.108,0.126-1.616,0.357l-0.291,0.137l-0.147,0.232C425.318,316.328,424.598,318.729,425.198,319.718z
				 M428.843,313.716c0.173-0.047,0.36-0.075,0.55-0.075c1.153,0,2.326,0.916,2.924,1.558c-0.757,0.869-3.728,2.623-5.397,3.209
				C427.145,317.427,427.913,315.537,428.843,313.716z"/>
			<path fill="#43424C" d="M454.888,311.136c-0.807,0.115-1.801,0.844-2.228,1.182c-1.492,1.178-1.232,2.999-0.012,4.23
				c1.041,1.053,2.477,2.008,3.828,2.625c0.852,0.385,1.902,0.346,2.508-0.43C460.607,316.677,456.94,309.9,454.888,311.136z
				 M454.994,315.811c-0.488-0.347-1.02-0.729-1.324-1.259c-0.271-0.476,0.656-1.053,0.964-1.324
				c0.108-0.096,0.305-0.237,0.514-0.404c0.051,0.021,0.098,0.044,0.123,0.055c0.05,0.023,0.128,0.078,0.24,0.19
				c0.396,0.391,0.67,0.88,0.921,1.371c0.437,0.835,0.911,1.913,0.902,2.859C456.485,317.023,455.697,316.314,454.994,315.811z"/>
			<path fill="#43424C" d="M457.479,317.64c0.014-0.02,0.028-0.053,0.045-0.09C457.454,317.579,457.499,317.618,457.479,317.64z"/>
			<path fill="#43424C" d="M536.978,346.391c-4.199-0.45-14.409-2.999-25.064-6.833c-12.517-4.504-21.835-9.405-26.238-13.801
				c-9.402-9.383-11.391-7.773-12.044-7.246c-0.773,0.625-2.837,2.29,6.222,16.363c10.159,15.783,25.132,34.654,50.962,40.545
				c0.067,0.016,0.141,0.021,0.21,0.021c0.427,0,0.815-0.293,0.916-0.731c0.114-0.505-0.201-1.008-0.706-1.126
				c-13.22-3.012-30.826-10.25-49.801-39.728c-7.66-11.901-6.621-13.868-6.644-13.868c0.452-0.172,3.208,0.769,9.556,7.1
				c10.603,10.583,43.442,20.211,52.432,21.172c0.514,0.059,0.977-0.315,1.033-0.832
				C537.866,346.911,537.492,346.445,536.978,346.391z"/>
			<path fill="#43424C" d="M533.736,354.76c-17.858-2.748-27.908-7.905-32.307-10.734c-0.826-0.53-1.563-0.94-2.206-0.53
				c-0.341,0.215-0.52,0.605-0.464,1.021c0.282,2.137,15.158,15.175,31.982,20.433c0.095,0.025,0.188,0.042,0.282,0.042
				c0.396,0,0.771-0.257,0.894-0.662c0.156-0.494-0.117-1.021-0.614-1.178c-11.706-3.658-21.94-10.902-27.135-15.373
				c5.585,2.91,15.007,6.644,29.279,8.838c0.52,0.076,0.997-0.273,1.075-0.787S534.25,354.838,533.736,354.76z"/>
		</g>
	</g>
	<g>
		<g>
			<g>
				<path fill="#878787" d="M606.29,161.086c0,0.949-0.768,1.72-1.717,1.72c-0.947,0-1.718-0.771-1.718-1.72
					c0-0.947,0.771-1.714,1.718-1.714C605.522,159.372,606.29,160.14,606.29,161.086z"/>
			</g>
			<g>
				<path fill="#878787" d="M644.978,312.932c0,1.374-1.114,2.491-2.494,2.491c-1.374,0-2.488-1.117-2.488-2.491
					c0-1.377,1.114-2.491,2.488-2.491C643.863,310.441,644.978,311.555,644.978,312.932z"/>
			</g>
			<g>
				<circle fill="#878787" cx="274.315" cy="362.096" r="3.172"/>
			</g>
			<g>
				<circle fill="#878787" cx="539.153" cy="152.857" r="2.713"/>
			</g>
			<g>
				<circle fill="#878787" cx="537.542" cy="345.124" r="2.159"/>
			</g>
			<g>
				<path fill="#878787" d="M594.593,345.076c0,1.335-1.08,2.416-2.418,2.416c-1.332,0-2.416-1.081-2.416-2.416
					c0-1.332,1.084-2.415,2.416-2.415C593.513,342.661,594.593,343.744,594.593,345.076z"/>
			</g>
			<g>
				<circle fill="#878787" cx="473.337" cy="141.425" r="1.216"/>
			</g>
			<g>
				<circle fill="#878787" cx="340.63" cy="176.269" r="1.687"/>
			</g>
			<g>
				<circle fill="#878787" cx="356.639" cy="75.869" r="3.046"/>
			</g>
			<g>
				<circle fill="#878787" cx="347.852" cy="130.247" r="1.092"/>
			</g>
			<g>
				<circle fill="#878787" cx="540.221" cy="186.015" r="1.645"/>
			</g>
			<g>
				<path fill="#878787" d="M259.518,160.924c0,1.301-1.056,2.354-2.354,2.354c-1.298,0-2.351-1.053-2.351-2.354
					c0-1.295,1.053-2.351,2.351-2.351C258.462,158.573,259.518,159.629,259.518,160.924z"/>
			</g>
			<g>
				<circle fill="#878787" cx="290.324" cy="332.292" r="1.067"/>
			</g>
			<g>
				<path fill="#878787" d="M632.707,356.894c0,0.284-0.229,0.511-0.514,0.511c-0.282,0-0.511-0.227-0.511-0.511
					c0-0.285,0.229-0.514,0.511-0.514C632.478,356.38,632.707,356.609,632.707,356.894z"/>
			</g>
			<g>
				<circle fill="#878787" cx="192.874" cy="221.683" r="1.615"/>
			</g>
			<g>
				<circle fill="#878787" cx="155.135" cy="180.31" r="0.333"/>
			</g>
			<g>
				<circle fill="#878787" cx="193.135" cy="342.116" r="2.887"/>
			</g>
			<g>
				<path fill="#878787" d="M187.659,241.563c0,0.19-0.156,0.343-0.347,0.343c-0.187,0-0.341-0.153-0.341-0.343
					s0.154-0.344,0.341-0.344C187.503,241.219,187.659,241.373,187.659,241.563z"/>
			</g>
			<g>
				<path fill="#878787" d="M171.394,229.566c0,0.838-0.682,1.519-1.52,1.519c-0.835,0-1.517-0.681-1.517-1.519
					s0.682-1.516,1.517-1.516C170.712,228.05,171.394,228.728,171.394,229.566z"/>
			</g>
		</g>
	</g>
	<g>
		<g>
			<g>
				<path fill="#878787" d="M660.671,168.405c0,0.95-0.771,1.72-1.718,1.72c-0.946,0-1.717-0.771-1.717-1.72
					c0-0.946,0.771-1.714,1.717-1.714C659.9,166.691,660.671,167.459,660.671,168.405z"/>
			</g>
			<g>
				<circle fill="#878787" cx="593.533" cy="160.179" r="2.713"/>
			</g>
			<g>
				<circle fill="#878787" cx="591.923" cy="352.443" r="2.159"/>
			</g>
			<g>
				<path fill="#878787" d="M648.974,352.395c0,1.337-1.081,2.418-2.419,2.418c-1.332,0-2.415-1.081-2.415-2.418
					c0-1.332,1.083-2.415,2.415-2.415C647.893,349.98,648.974,351.063,648.974,352.395z"/>
			</g>
			<g>
				<circle fill="#878787" cx="558.514" cy="216.204" r="2.767"/>
			</g>
			<g>
				<path fill="#878787" d="M528.931,148.744c0,0.673-0.541,1.218-1.215,1.218c-0.67,0-1.215-0.544-1.215-1.218
					c0-0.673,0.545-1.214,1.215-1.214C528.39,147.529,528.931,148.071,528.931,148.744z"/>
			</g>
			<g>
				<path fill="#878787" d="M596.246,193.336c0,0.908-0.734,1.645-1.642,1.645c-0.911,0-1.648-0.737-1.648-1.645
					c0-0.91,0.737-1.647,1.648-1.647C595.512,191.689,596.246,192.426,596.246,193.336z"/>
			</g>
			<g>
				<circle fill="#878787" cx="686.575" cy="364.215" r="0.512"/>
			</g>
			<g>
				<circle fill="#878787" cx="247.254" cy="229.002" r="1.616"/>
			</g>
			<g>
				<path fill="#878787" d="M209.848,187.629c0,0.184-0.15,0.335-0.335,0.335c-0.179,0-0.329-0.151-0.329-0.335
					c0-0.182,0.15-0.33,0.329-0.33C209.697,187.299,209.848,187.447,209.848,187.629z"/>
			</g>
			<g>
				<circle fill="#878787" cx="247.514" cy="349.438" r="2.886"/>
			</g>
			<g>
				<path fill="#878787" d="M242.04,248.881c0,0.19-0.157,0.343-0.347,0.343c-0.188,0-0.341-0.153-0.341-0.343
					c0-0.187,0.153-0.341,0.341-0.341C241.883,248.541,242.04,248.694,242.04,248.881z"/>
			</g>
			<g>
				<circle fill="#878787" cx="224.256" cy="236.888" r="1.518"/>
			</g>
		</g>
	</g>
</g>
</svg>
